<?xml version="1.0" encoding="UTF-8"?>
<svg version="1.1" xmlns="http://www.w3.org/2000/svg" width="500" height="500">
<path d="M0 0 C-3.70199582 7.71249129 -7.95141393 12.50470891 -15.53515625 16.578125 C-24.03925866 21.48381957 -29.16675678 29.28851454 -31.9375 38.625 C-34.38486521 49.50047915 -31.89441364 58.46898607 -29 69 C-19.19654258 70.89350268 -8.06492913 71.61487301 1 67 C1.96873047 66.51273438 1.96873047 66.51273438 2.95703125 66.015625 C6.19245981 64.30236344 7.94137355 63.08793968 10 60 C10.66 60 11.32 60 12 60 C12.268125 59.278125 12.53625 58.55625 12.8125 57.8125 C14 55 14 55 15.5 52.7578125 C17.28464862 49.47666166 17.71782261 46.75970408 18.1875 43.0625 C18.42533203 41.28552734 18.42533203 41.28552734 18.66796875 39.47265625 C19.05872003 36.0317749 19.05872003 36.0317749 18.96484375 32.6875 C19.00802553 29.38649275 19.91943112 28.48067828 22 26 C22.71162443 24.35202764 23.39031953 22.68834592 24 21 C27 22 27 22 27.94921875 23.64453125 C31.75645084 34.82449851 30.50712615 45.19087445 26 56 C19.8985452 67.94031535 11.46357236 75.13238592 -1 80 C-11.54225911 82.97695918 -22.76766468 82.81763576 -32.875 78.36328125 C-36.5331325 76.01642786 -38.18504599 72.84907228 -40 69 C-40.52722656 68.1853125 -41.05445313 67.370625 -41.59765625 66.53125 C-43.71709918 61.19426837 -43.51291829 56.06550599 -43.5 50.375 C-43.54253906 48.70630859 -43.54253906 48.70630859 -43.5859375 47.00390625 C-43.60531553 38.68104121 -41.70325989 32.41363049 -38 25 C-37.61650391 24.22833496 -37.23300781 23.45666992 -36.83789062 22.66162109 C-36.56138672 22.11328613 -36.28488281 21.56495117 -36 21 C-35.34 21 -34.68 21 -34 21 C-33.938125 20.443125 -33.87625 19.88625 -33.8125 19.3125 C-32.6519231 16.00931958 -30.59786554 14.28105267 -28 12 C-27.34 12 -26.68 12 -26 12 C-26 11.34 -26 10.68 -26 10 C-18.85400434 4.67851387 -9.16542567 -0.96478165 0 0 Z " fill="#46AB76" transform="translate(191,214)"/>
<path d="M0 0 C0.8146875 0.00257813 1.629375 0.00515625 2.46875 0.0078125 C3.2834375 0.00523437 4.098125 0.00265625 4.9375 0 C6.96875 0.1328125 6.96875 0.1328125 7.96875 1.1328125 C8.05633003 3.13246232 8.07571576 5.1351736 8.06640625 7.13671875 C8.06318359 8.35166016 8.05996094 9.56660156 8.05664062 10.81835938 C8.04826172 12.09775391 8.03988281 13.37714844 8.03125 14.6953125 C8.02673828 15.97857422 8.02222656 17.26183594 8.01757812 18.58398438 C8.00574545 21.76697272 7.98926068 24.94987012 7.96875 28.1328125 C9.02835938 28.12121094 10.08796875 28.10960937 11.1796875 28.09765625 C12.56770658 28.08827774 13.95572755 28.07917761 15.34375 28.0703125 C16.04242188 28.06193359 16.74109375 28.05355469 17.4609375 28.04492188 C22.7421875 28.01953125 22.7421875 28.01953125 24.96875 29.1328125 C24.96875 29.7928125 24.96875 30.4528125 24.96875 31.1328125 C25.62875 31.1328125 26.28875 31.1328125 26.96875 31.1328125 C26.96089478 29.83077881 26.96089478 29.83077881 26.95288086 28.50244141 C26.93585138 25.28580977 26.92330592 22.06920109 26.91381836 18.85253906 C26.9087857 17.45962773 26.90195902 16.0667217 26.89331055 14.67382812 C26.88119848 12.67320004 26.87604588 10.67253362 26.87109375 8.671875 C26.86585693 7.46740723 26.86062012 6.26293945 26.85522461 5.02197266 C26.96875 2.1328125 26.96875 2.1328125 27.96875 0.1328125 C37.53875 0.1328125 47.10875 0.1328125 56.96875 0.1328125 C56.96875 2.7728125 56.96875 5.4128125 56.96875 8.1328125 C50.69875 8.1328125 44.42875 8.1328125 37.96875 8.1328125 C37.96875 10.1128125 37.96875 12.0928125 37.96875 14.1328125 C39.11214844 14.12121094 40.25554687 14.10960937 41.43359375 14.09765625 C42.92447754 14.08827962 44.41536309 14.07917929 45.90625 14.0703125 C47.03836914 14.05774414 47.03836914 14.05774414 48.19335938 14.04492188 C50.11869313 14.03628809 52.04410581 14.08056917 53.96875 14.1328125 C54.96875 15.1328125 54.96875 15.1328125 55.09375 18.6328125 C54.96875 22.1328125 54.96875 22.1328125 53.96875 23.1328125 C51.27220146 23.20600871 48.60183542 23.22523787 45.90625 23.1953125 C45.14763672 23.19080078 44.38902344 23.18628906 43.60742188 23.18164062 C41.72783129 23.1698193 39.84828101 23.15188328 37.96875 23.1328125 C37.96875 25.1128125 37.96875 27.0928125 37.96875 29.1328125 C44.23875 29.1328125 50.50875 29.1328125 56.96875 29.1328125 C56.96875 32.1028125 56.96875 35.0728125 56.96875 38.1328125 C52.87536348 38.18220365 48.78209202 38.21852751 44.68847656 38.24267578 C43.29554219 38.25274127 41.90262898 38.26639484 40.50976562 38.28369141 C38.5092064 38.3079147 36.50849385 38.31822064 34.5078125 38.328125 C33.30334473 38.33859863 32.09887695 38.34907227 30.85791016 38.35986328 C27.96875 38.1328125 27.96875 38.1328125 25.96875 36.1328125 C25.30875 36.7928125 24.64875 37.4528125 23.96875 38.1328125 C21.37084961 38.37573242 21.37084961 38.37573242 18.12109375 38.36328125 C16.95900391 38.36134766 15.79691406 38.35941406 14.59960938 38.35742188 C13.38080078 38.34517578 12.16199219 38.33292969 10.90625 38.3203125 C9.07223633 38.3193457 9.07223633 38.3193457 7.20117188 38.31835938 C-1.89113944 38.27292306 -1.89113944 38.27292306 -3.03125 37.1328125 C-3.13220564 34.47825057 -3.17095998 31.85026074 -3.1640625 29.1953125 C-3.16501923 28.4000415 -3.16597595 27.60477051 -3.16696167 26.78540039 C-3.16764343 25.1007479 -3.16578943 23.41609279 -3.16162109 21.73144531 C-3.15627275 19.14382053 -3.16156619 16.55636934 -3.16796875 13.96875 C-3.16730797 12.33593711 -3.1660268 10.70312434 -3.1640625 9.0703125 C-3.16608673 8.29115479 -3.16811096 7.51199707 -3.17019653 6.70922852 C-3.14162138 0.20541371 -3.14162138 0.20541371 0 0 Z " fill="#47AA79" transform="translate(239.03125,256.8671875)"/>
<path d="M0 0 C-2.02961141 17.57643477 -4.27055081 34.52314814 -18 47 C-22.64270376 50.31732422 -26.20565795 52.31457899 -32 52 C-31.50104522 44.84831485 -28.68436185 38.58708719 -26 32 C-26.96345444 33.87237371 -27.92053102 35.7480299 -28.875 37.625 C-29.40867188 38.66914063 -29.94234375 39.71328125 -30.4921875 40.7890625 C-31.91454291 43.81801625 -33.0122001 46.80643334 -34 50 C-34.99 49.67 -35.98 49.34 -37 49 C-39.30944996 38.94271793 -39.02685809 28.66554003 -33.62890625 19.73046875 C-26.22045061 9.3017794 -13.16154473 0 0 0 Z M-25 29 C-24 31 -24 31 -24 31 Z " fill="#1F253B" transform="translate(220,204)"/>
<path d="M0 0 C0 0.99 0 1.98 0 3 C-1.33804688 3.29003906 -1.33804688 3.29003906 -2.703125 3.5859375 C-3.87359375 3.84632813 -5.0440625 4.10671875 -6.25 4.375 C-7.41015625 4.63023437 -8.5703125 4.88546875 -9.765625 5.1484375 C-12.49392779 5.86675877 -14.5188179 6.73864592 -17 8 C-18.53330718 8.31473147 -20.07663778 8.58301961 -21.625 8.8125 C-32.28790358 10.89497603 -39.84623667 15.98868466 -46 25 C-50.9462022 35.11904978 -51.21583726 44.28552215 -47.8515625 54.87109375 C-46.98880086 57.23997673 -46.98880086 57.23997673 -45 60 C-44.63731066 62.34923778 -44.49722853 64.66781915 -44.34375 67.0390625 C-44.2303125 67.68617188 -44.116875 68.33328125 -44 69 C-43.34 69.33 -42.68 69.66 -42 70 C-41.40644386 72.64860427 -41.25790731 75.29197322 -41 78 C-48.66635455 75.44454848 -53.23433938 68.90645686 -56.875 61.9375 C-61.41519643 51.97046946 -63.01319033 40.63598828 -59.7421875 29.94921875 C-54.9433425 17.34593636 -46.4584139 6.69720357 -34.07421875 0.8828125 C-23.76302811 -3.50575451 -10.59435264 -3.53145088 0 0 Z " fill="#4AA976" transform="translate(191,209)"/>
<path d="M0 0 C4.91884518 2.89878556 8.59708948 6.43645866 10.5703125 11.8671875 C11.8568655 17.22511077 12.05399752 21.32586535 9.6875 26.4375 C5.75588312 32.26452446 1.67655665 36.05046178 -5.3125 37.4375 C-11.95278006 38.18720904 -17.5486712 36.91119315 -23.3125 33.4375 C-27.70972557 29.02250787 -30.41262554 24.56534581 -30.625 18.25 C-30.54159161 12.55042686 -28.77388128 8.09444308 -24.88671875 3.8984375 C-17.94483467 -2.23625075 -8.54300611 -3.82792389 0 0 Z M-17.3125 10.4375 C-19.78881221 14.15196831 -19.85055227 17.13308186 -19.3125 21.4375 C-17.98384578 24.6542418 -17.02383743 26.00279379 -14.0625 27.8125 C-10.44215664 28.63530531 -7.90575392 28.35214645 -4.3125 27.4375 C-0.81984336 25.13969958 -0.36791185 23.66653565 0.625 19.5625 C0.94586526 15.4676481 0.04980491 12.85876917 -2.3125 9.4375 C-7.23634166 5.70217185 -12.65609594 6.94519696 -17.3125 10.4375 Z " fill="#1E243B" transform="translate(335.3125,212.5625)"/>
<path d="M0 0 C8 0 8 0 10.35546875 1.7578125 C11.26232422 2.92957031 11.26232422 2.92957031 12.1875 4.125 C12.84105469 4.94355469 13.49460937 5.76210938 14.16796875 6.60546875 C14.77253906 7.39566406 15.37710937 8.18585938 16 9 C16.99548948 10.1497542 17.99472068 11.29629559 19 12.4375 C21 15 21 15 21 17 C21.66 17 22.32 17 23 17 C23.33 17.66 23.66 18.32 24 19 C24.33 12.73 24.66 6.46 25 0 C27.97 0 30.94 0 34 0 C34 12.21 34 24.42 34 37 C25 37 25 37 21.8203125 34.04296875 C20.89238952 32.77893731 19.99421042 31.49260144 19.125 30.1875 C18.21216697 28.90927734 17.29814258 27.63190448 16.3828125 26.35546875 C15.99496582 25.78465576 15.60711914 25.21384277 15.20751953 24.62573242 C13.93612353 22.91400053 12.54018184 21.47088201 11 20 C10.93941406 21.21558594 10.87882812 22.43117188 10.81640625 23.68359375 C10.73201668 25.26824228 10.6473679 26.85287702 10.5625 28.4375 C10.50352539 29.64116211 10.50352539 29.64116211 10.44335938 30.86914062 C10.11328125 36.88671875 10.11328125 36.88671875 9 38 C2.47457627 38.23728814 2.47457627 38.23728814 0 37 C0 24.79 0 12.58 0 0 Z " fill="#47AA77" transform="translate(301,257)"/>
<path d="M0 0 C1.25554687 -0.00128906 2.51109375 -0.00257813 3.8046875 -0.00390625 C4.46178711 -0.00181152 5.11888672 0.0002832 5.79589844 0.00244141 C7.80411335 0.00779016 9.81210459 0.00249559 11.8203125 -0.00390625 C13.07585937 -0.00261719 14.33140625 -0.00132812 15.625 0 C16.78644531 0.00112793 17.94789063 0.00225586 19.14453125 0.00341797 C21.8125 0.1328125 21.8125 0.1328125 22.8125 1.1328125 C22.8125 3.7728125 22.8125 6.4128125 22.8125 9.1328125 C16.5425 9.1328125 10.2725 9.1328125 3.8125 9.1328125 C3.8125 11.1128125 3.8125 13.0928125 3.8125 15.1328125 C4.95589844 15.12121094 6.09929687 15.10960937 7.27734375 15.09765625 C8.76822754 15.08827962 10.25911309 15.07917929 11.75 15.0703125 C12.88211914 15.05774414 12.88211914 15.05774414 14.03710938 15.04492188 C15.96244313 15.03628809 17.88785581 15.08056917 19.8125 15.1328125 C20.8125 16.1328125 20.8125 16.1328125 20.8125 23.1328125 C15.2025 23.1328125 9.5925 23.1328125 3.8125 23.1328125 C3.8125 25.4428125 3.8125 27.7528125 3.8125 30.1328125 C10.0825 29.8028125 16.3525 29.4728125 22.8125 29.1328125 C23.8125 31.1328125 23.8125 31.1328125 23.8125 38.1328125 C13.5825 38.1328125 3.3525 38.1328125 -7.1875 38.1328125 C-7.21040839 32.88170054 -7.23033563 27.63076072 -7.24243164 22.37963867 C-7.24747218 20.59187229 -7.25430454 18.80411005 -7.26293945 17.01635742 C-7.2750173 14.45230082 -7.28073094 11.88829853 -7.28515625 9.32421875 C-7.29031754 8.5200502 -7.29547882 7.71588165 -7.30079651 6.88734436 C-7.30099215 4.96879535 -7.24951983 3.05035882 -7.1875 1.1328125 C-5.35715945 -0.69752805 -2.45538008 0.00238453 0 0 Z " fill="#21263A" transform="translate(243.1875,210.8671875)"/>
<path d="M0 0 C0.70318359 -0.01611328 1.40636719 -0.03222656 2.13085938 -0.04882812 C6.63705681 -0.05305137 9.4370287 0.62354966 13.0625 3.3125 C12.4025 5.9525 11.7425 8.5925 11.0625 11.3125 C8.29973823 10.78981534 5.7364124 10.20380413 3.0625 9.3125 C0.72950175 9.27295766 -1.60458189 9.26848268 -3.9375 9.3125 C-4.2675 10.3025 -4.5975 11.2925 -4.9375 12.3125 C-3.74253906 12.67601562 -3.74253906 12.67601562 -2.5234375 13.046875 C9.64612989 16.89612989 9.64612989 16.89612989 13.0625 20.3125 C14.4224428 24.47048604 14.50652005 27.98043985 13.125 32.125 C8.94565644 36.55763711 4.2671353 38.53484736 -1.8125 38.8125 C-7.34156811 38.60644777 -11.9921452 36.66943505 -16.9375 34.3125 C-16.32211538 28.77403846 -16.32211538 28.77403846 -14.375 26.4375 C-13.900625 26.06625 -13.42625 25.695 -12.9375 25.3125 C-11.9475 25.8075 -10.9575 26.3025 -9.9375 26.8125 C-5.80272766 28.61353581 -2.40551547 28.54765871 2.0625 28.3125 C2.0625 27.3225 2.0625 26.3325 2.0625 25.3125 C1.09828125 24.99796875 0.1340625 24.6834375 -0.859375 24.359375 C-2.13562604 23.92770185 -3.41165629 23.49537555 -4.6875 23.0625 C-5.32171875 22.85753906 -5.9559375 22.65257812 -6.609375 22.44140625 C-10.60540758 21.06777005 -13.38162572 19.72244118 -15.9375 16.3125 C-17.01298846 11.89192612 -16.4986407 8.25441474 -14.1875 4.375 C-9.7280181 0.28714159 -5.92459425 -0.02700362 0 0 Z " fill="#4CA879" transform="translate(355.9375,256.6875)"/>
<path d="M0 0 C1.4765625 1.20703125 1.4765625 1.20703125 2.7265625 3.70703125 C2.4765625 6.20703125 2.4765625 6.20703125 0.7890625 8.58203125 C-1.5234375 10.20703125 -1.5234375 10.20703125 -3.5234375 10.08203125 C-5.5234375 9.20703125 -5.5234375 9.20703125 -7.3984375 8.14453125 C-10.23027628 6.89519061 -12.45459042 7.01522831 -15.5234375 7.20703125 C-16.2659375 7.24828125 -17.0084375 7.28953125 -17.7734375 7.33203125 C-19.81510417 8.13411458 -19.81510417 8.13411458 -20.8359375 10.83203125 C-21.82695176 15.69701033 -21.65923709 19.36135692 -19.0234375 23.64453125 C-15.3523831 25.93894025 -11.75100191 25.87659025 -7.5234375 25.20703125 C-6.5334375 24.54703125 -5.5434375 23.88703125 -4.5234375 23.20703125 C-2.03820825 23.44002149 -0.7320797 24.05594552 1.2890625 25.51953125 C2.4765625 27.20703125 2.4765625 27.20703125 2.4140625 29.20703125 C0.75938156 32.73701726 -1.78447988 33.88793591 -5.2734375 35.39453125 C-12.0982596 37.10073677 -17.13916955 36.59367363 -23.40625 33.546875 C-27.3170639 31.07195033 -30.69738218 27.72045567 -32.1640625 23.2578125 C-33.32307042 16.6439086 -32.84303541 11.15941371 -29.5234375 5.20703125 C-22.15285602 -3.80145722 -10.13109472 -5.89938232 0 0 Z " fill="#1D233A" transform="translate(301.5234375,213.79296875)"/>
<path d="M0 0 C8 0 8 0 10.5 2 C10.995 2.66 11.49 3.32 12 4 C11.67 4.66 11.34 5.32 11 6 C10.1646875 5.2575 10.1646875 5.2575 9.3125 4.5 C6.76026303 2.54650741 6.76026303 2.54650741 2 3 C2 8.61 2 14.22 2 20 C3.65 19.67 5.3 19.34 7 19 C8.36020151 17.03241727 8.36020151 17.03241727 9 15 C9.95800425 19.82803732 10.1517331 24.41588768 10.125 29.3125 C10.12886719 30.04017578 10.13273437 30.76785156 10.13671875 31.51757812 C10.12673611 36.87326389 10.12673611 36.87326389 9 38 C2.47457627 38.23728814 2.47457627 38.23728814 0 37 C0 24.79 0 12.58 0 0 Z " fill="#49AC78" transform="translate(301,257)"/>
<path d="M0 0 C-2.36292656 2.52588702 -3.66462511 3.88820837 -7 5 C-7.33 5.99 -7.66 6.98 -8 8 C-3.05382728 8.35329805 -0.35496897 7.22587303 4 5 C4.99 5.33 5.98 5.66 7 6 C-3.83794856 12.28217372 -14.61016345 14.24621497 -27 12 C-29.52582825 11.187974 -31.63952539 10.23388445 -34 9 C-30.43954823 7.81318274 -27.56191663 7.90310168 -23.8125 7.9375 C-22.54019531 7.94652344 -21.26789063 7.95554687 -19.95703125 7.96484375 C-18.49330078 7.98224609 -18.49330078 7.98224609 -17 8 C-16.67 6.68 -16.34 5.36 -16 4 C-16.99 4.226875 -17.98 4.45375 -19 4.6875 C-23.61009705 5.3851425 -26.79933553 3.8423967 -31 2 C-31 1.67 -31 1.34 -31 1 C-30.3702124 1.01047363 -29.7404248 1.02094727 -29.09155273 1.03173828 C-26.20690994 1.0736023 -23.32233134 1.09942201 -20.4375 1.125 C-19.44685547 1.14175781 -18.45621094 1.15851563 -17.43554688 1.17578125 C-12.86913172 1.20612288 -3.55768329 -1.77884164 0 0 Z " fill="#49AD78" transform="translate(193,283)"/>
<path d="M0 0 C0.33 0.99 0.66 1.98 1 3 C0.05196132 4.3881995 -0.90086496 5.77339773 -1.87890625 7.140625 C-5.63424181 13.36898642 -6.42691292 20.89372016 -7 28 C-6.34 28 -5.68 28 -5 28 C-5 28.99 -5 29.98 -5 31 C-2.2241966 28.65531593 -1.53319452 26.92603338 -0.9375 23.375 C-0.52734375 20.9609375 -0.52734375 20.9609375 0 19 C0.66 18.67 1.32 18.34 2 18 C1.93039063 19.12921875 1.93039063 19.12921875 1.859375 20.28125 C1.53639181 29.78618385 3.3991673 37.95513984 6 47 C4.33333333 45.33333333 2.66666667 43.66666667 1 42 C-1.10820797 42.3185177 -1.10820797 42.3185177 -3 43 C-3 41.35 -3 39.7 -3 38 C-3.99 38 -4.98 38 -6 38 C-6.66 38 -7.32 38 -8 38 C-9.06467103 12.22513339 -9.06467103 12.22513339 -3 3 C-1.33203125 1.203125 -1.33203125 1.203125 0 0 Z " fill="#4AA675" transform="translate(156,236)"/>
<path d="M0 0 C1.65 0.33 3.3 0.66 5 1 C5 9.25 5 17.5 5 26 C1 27 1 27 -1 26 C-1.33 26.66 -1.66 27.32 -2 28 C-2.05783842 23.70838953 -2.0935412 19.41687855 -2.125 15.125 C-2.14175781 13.90167969 -2.15851563 12.67835938 -2.17578125 11.41796875 C-2.18222656 10.25136719 -2.18867188 9.08476562 -2.1953125 7.8828125 C-2.20578613 6.80402832 -2.21625977 5.72524414 -2.22705078 4.61376953 C-2 2 -2 2 0 0 Z " fill="#45A875" transform="translate(240,259)"/>
<path d="M0 0 C0.8146875 0.00257813 1.629375 0.00515625 2.46875 0.0078125 C3.2834375 0.00523437 4.098125 0.00265625 4.9375 0 C6.96875 0.1328125 6.96875 0.1328125 7.96875 1.1328125 C8.05633003 3.13246232 8.07571576 5.1351736 8.06640625 7.13671875 C8.06318359 8.35166016 8.05996094 9.56660156 8.05664062 10.81835938 C8.04826172 12.09775391 8.03988281 13.37714844 8.03125 14.6953125 C8.02673828 15.97857422 8.02222656 17.26183594 8.01757812 18.58398438 C8.00574555 21.7669467 7.98780944 24.94988524 7.96875 28.1328125 C12.25875 28.1328125 16.54875 28.1328125 20.96875 28.1328125 C20.96875 28.7928125 20.96875 29.4528125 20.96875 30.1328125 C16.34875 30.1328125 11.72875 30.1328125 6.96875 30.1328125 C4.80966127 24.12527172 4.88864355 19.01674106 5.34375 12.6953125 C5.40046875 11.77298828 5.4571875 10.85066406 5.515625 9.90039062 C5.65594267 7.64361471 5.80722105 5.38815253 5.96875 3.1328125 C4.31875 3.1328125 2.66875 3.1328125 0.96875 3.1328125 C-0.19527727 6.62489431 -0.24243508 9.52429022 -0.34765625 13.20703125 C-0.36843735 13.8908638 -0.38921844 14.57469635 -0.41062927 15.2792511 C-0.47591154 17.4595046 -0.53491017 19.63987655 -0.59375 21.8203125 C-0.63695553 23.30014236 -0.68057047 24.77996033 -0.72460938 26.25976562 C-0.83157083 29.88398872 -0.93289823 33.50834439 -1.03125 37.1328125 C-1.69125 37.1328125 -2.35125 37.1328125 -3.03125 37.1328125 C-3.0559001 32.02417354 -3.07408607 26.91556891 -3.08618164 21.80688477 C-3.09122204 20.06762082 -3.0980543 18.32836114 -3.10668945 16.58911133 C-3.11876792 14.09455313 -3.12448108 11.60005077 -3.12890625 9.10546875 C-3.13406754 8.32317398 -3.13922882 7.54087921 -3.14454651 6.73487854 C-3.14474226 4.86714136 -3.09324694 2.99952046 -3.03125 1.1328125 C-2.03125 0.1328125 -2.03125 0.1328125 0 0 Z " fill="#599D7B" transform="translate(239.03125,256.8671875)"/>
<path d="M0 0 C3 1 3 1 4.2109375 3.01171875 C5.28088781 7.06375831 4.97246937 10.66719045 4.625 14.8125 C4.56828125 15.60076172 4.5115625 16.38902344 4.453125 17.20117188 C4.31249026 19.13489961 4.15766112 21.06758595 4 23 C3.34 23.33 2.68 23.66 2 24 C2 23.34 2 22.68 2 22 C0.35 21.67 -1.3 21.34 -3 21 C-3 20.34 -3 19.68 -3 19 C-3.66 18.67 -4.32 18.34 -5 18 C-5.47444089 9.77635783 -5.47444089 9.77635783 -3.625 6.75 C-2.820625 5.88375 -2.820625 5.88375 -2 5 C-1.28837557 3.35202764 -0.60968047 1.68834592 0 0 Z " fill="#45A973" transform="translate(215,235)"/>
<path d="M0 0 C0.33 0 0.66 0 1 0 C1.21133202 7.04440079 1.07965362 13.24112575 -1 20 C-1.99 20 -2.98 20 -4 20 C-4.66 19.34 -5.32 18.68 -6 18 C-6.99 18 -7.98 18 -9 18 C-9.2475 18.886875 -9.495 19.77375 -9.75 20.6875 C-11.08002521 24.21206681 -12.52505426 26.18131179 -15 29 C-15.46792969 29.59296875 -15.93585938 30.1859375 -16.41796875 30.796875 C-19.29193195 34.37270582 -21.39708926 36.78158245 -26 38 C-26 37.01 -26 36.02 -26 35 C-24.35666496 33.96210419 -22.68756133 32.96432076 -21 32 C-20.34 31.01 -19.68 30.02 -19 29 C-18.34 29 -17.68 29 -17 29 C-16.731875 28.278125 -16.46375 27.55625 -16.1875 26.8125 C-15 24 -15 24 -13.5 21.8125 C-11.33320569 17.74976066 -10.74475464 13.51233691 -10 9 C-7.0280615 10.12451727 -4.66559313 11.22293791 -2 13 C-1.34 8.71 -0.68 4.42 0 0 Z " fill="#54A57C" transform="translate(220,245)"/>
<path d="M0 0 C16.8929385 -0.3690205 16.8929385 -0.3690205 24 2 C24 2.99 24 3.98 24 5 C23.10796875 5.19335938 22.2159375 5.38671875 21.296875 5.5859375 C20.12640625 5.84632813 18.9559375 6.10671875 17.75 6.375 C16.58984375 6.63023437 15.4296875 6.88546875 14.234375 7.1484375 C11.10744922 7.85042874 11.10744922 7.85042874 8.84375 9.09375 C6.65864978 10.16778231 5.16728448 10.20557615 2.75 10.125 C0.89375 10.063125 0.89375 10.063125 -1 10 C-1 9.34 -1 8.68 -1 8 C4.445 7.505 4.445 7.505 10 7 C10 5.35 10 3.7 10 2 C6.37 2 2.74 2 -1 2 C-0.67 1.34 -0.34 0.68 0 0 Z " fill="#51A57C" transform="translate(167,207)"/>
<path d="M0 0 C9.57 0 19.14 0 29 0 C29 2.64 29 5.28 29 8 C23.39 8 17.78 8 12 8 C12 7.67 12 7.34 12 7 C16.67201205 5.79431947 21.21496292 5.90617574 26 6 C26 5.01 26 4.02 26 3 C17.09 3 8.18 3 -1 3 C-0.67 2.01 -0.34 1.02 0 0 Z " fill="#55A07A" transform="translate(267,257)"/>
<path d="M0 0 C-4.22472735 8.78195639 -8.93471756 13.27355979 -18 17 C-18 15.68 -18 14.36 -18 13 C-16.68 13 -15.36 13 -14 13 C-13.67 12.34 -13.34 11.68 -13 11 C-11.35353315 9.31337542 -9.68816933 7.64488294 -8 6 C-10.475 5.01 -10.475 5.01 -13 4 C-9.15294495 0.15294495 -5.29192831 -0.2461362 0 0 Z " fill="#509D7A" transform="translate(191,214)"/>
<path d="M0 0 C0.99 0.33 1.98 0.66 3 1 C2.25105469 1.54914063 1.50210938 2.09828125 0.73046875 2.6640625 C-2.06991121 5.05980959 -3.74593933 7.25977682 -5.6875 10.375 C-6.26886719 11.29023438 -6.85023438 12.20546875 -7.44921875 13.1484375 C-9.02316818 16.04260144 -10.05674044 18.84960599 -11 22 C-11.99 21.67 -12.98 21.34 -14 21 C-13.67 19.68 -13.34 18.36 -13 17 C-13.99 16.34 -14.98 15.68 -16 15 C-16 14.01 -16 13.02 -16 12 C-14.68 12 -13.36 12 -12 12 C-11.34 11.01 -10.68 10.02 -10 9 C-9.34 9.33 -8.68 9.66 -8 10 C-8.33 8.68 -8.66 7.36 -9 6 C-8.2575 5.566875 -7.515 5.13375 -6.75 4.6875 C-4.0240513 3.1018859 -4.0240513 3.1018859 -1.875 1.25 C-0.946875 0.63125 -0.946875 0.63125 0 0 Z " fill="#51A780" transform="translate(170,231)"/>
<path d="M0 0 C3.34252724 -0.07427838 5.8035914 -0.06546953 9 1 C9.33 0.67 9.66 0.34 10 0 C11.52519276 0.08937803 13.04681929 0.24537146 14.5625 0.4375 C15.38878906 0.53933594 16.21507812 0.64117187 17.06640625 0.74609375 C17.70449219 0.82988281 18.34257812 0.91367187 19 1 C19 3.64 19 6.28 19 9 C18.67 8.01 18.34 7.02 18 6 C16.700625 6.061875 16.700625 6.061875 15.375 6.125 C12 6 12 6 8.875 4.875 C6.06641935 3.70402304 6.06641935 3.70402304 3.625 4.875 C3.08875 5.24625 2.5525 5.6175 2 6 C0 3 0 3 0 0 Z " fill="#43AA73" transform="translate(348,259)"/>
<path d="M0 0 C0.99 0.33 1.98 0.66 3 1 C3.33 2.65 3.66 4.3 4 6 C3.01 6.495 3.01 6.495 2 7 C1.34 6.67 0.68 6.34 0 6 C-0.77112541 10.72314313 -1.09764874 15.21521178 -1 20 C-1.66 20.33 -2.32 20.66 -3 21 C-3 20.34 -3 19.68 -3 19 C-3.66 18.67 -4.32 18.34 -5 18 C-5.47444089 9.77635783 -5.47444089 9.77635783 -3.625 6.75 C-2.820625 5.88375 -2.820625 5.88375 -2 5 C-1.28837557 3.35202764 -0.60968047 1.68834592 0 0 Z " fill="#4C9871" transform="translate(215,235)"/>
<path d="M0 0 C1.485 0.99 1.485 0.99 3 2 C3.99 1.34 4.98 0.68 6 0 C6 1.32 6 2.64 6 4 C5.34 4 4.68 4 4 4 C4.57944932 5.99863756 4.57944932 5.99863756 6 8 C6.99 8.33 7.98 8.66 9 9 C12 10 12 10 13.375 11.9375 C14 14 14 14 14 17 C7.99109543 15.02504535 4.61978345 11.04909047 1 6 C0 2.4375 0 2.4375 0 0 Z " fill="#54A580" transform="translate(136,270)"/>
<path d="M0 0 C1.32 0.66 2.64 1.32 4 2 C3.67 2.99 3.34 3.98 3 5 C3.99 5 4.98 5 6 5 C5.42415568 7.38564077 4.77772405 9.66682784 4 12 C4.33 12.99 4.66 13.98 5 15 C2.625 14.75 2.625 14.75 0 14 C-1.375 12.1875 -1.375 12.1875 -2 10 C-1.6875 8.125 -1.6875 8.125 -1 6 C-0.65421232 4.00211562 -0.31856451 2.00240549 0 0 Z " fill="#41AC73" transform="translate(343,260)"/>
<path d="M0 0 C0.33 0 0.66 0 1 0 C1 1.98 1 3.96 1 6 C2.14339844 5.98839844 3.28679687 5.97679687 4.46484375 5.96484375 C5.95572754 5.95546712 7.44661309 5.94636679 8.9375 5.9375 C10.06961914 5.92493164 10.06961914 5.92493164 11.22460938 5.91210938 C13.14994313 5.90347559 15.07535581 5.94775667 17 6 C18 7 18 7 18.0625 10.5625 C18.041875 11.696875 18.02125 12.83125 18 14 C17.01 14.33 16.02 14.66 15 15 C14.67 13.02 14.34 11.04 14 9 C9.05 8.67 4.1 8.34 -1 8 C-0.67 5.36 -0.34 2.72 0 0 Z " fill="#56A480" transform="translate(276,265)"/>
<path d="M0 0 C1.98 0.66 3.96 1.32 6 2 C6 2.66 6 3.32 6 4 C-0.16926733 7.65586212 -4.83575954 8.8602004 -12 8 C-15.125 7 -15.125 7 -17 6 C-17 5.67 -17 5.34 -17 5 C-12.05 5.33 -7.1 5.66 -2 6 C-1.67 4.35 -1.34 2.7 -1 1 C-0.67 0.67 -0.34 0.34 0 0 Z " fill="#55AA83" transform="translate(361,287)"/>
<path d="M0 0 C0.33 0.99 0.66 1.98 1 3 C0.04633931 4.39643173 -0.90932838 5.79153455 -1.875 7.1796875 C-7.58661239 16.42139365 -6.28858555 27.58954347 -6 38 C-6.66 38 -7.32 38 -8 38 C-9.06467103 12.22513339 -9.06467103 12.22513339 -3 3 C-1.33203125 1.203125 -1.33203125 1.203125 0 0 Z " fill="#5BA680" transform="translate(156,236)"/>
<path d="M0 0 C0 0.66 0 1.32 0 2 C0.66 2 1.32 2 2 2 C2.33 1.34 2.66 0.68 3 0 C3 1.32 3 2.64 3 4 C3.66 4.33 4.32 4.66 5 5 C-0.625 10 -0.625 10 -4 10 C-5.125 4.375 -5.125 4.375 -4 1 C-2 0 -2 0 0 0 Z " fill="#4AAE80" transform="translate(204,277)"/>
<path d="M0 0 C8 0 8 0 10.5 2 C10.995 2.66 11.49 3.32 12 4 C11.67 4.66 11.34 5.32 11 6 C10.1646875 5.2575 10.1646875 5.2575 9.3125 4.5 C6.76026303 2.54650741 6.76026303 2.54650741 2 3 C2 14.22 2 25.44 2 37 C1.34 37 0.68 37 0 37 C0 24.79 0 12.58 0 0 Z " fill="#609F7F" transform="translate(301,257)"/>
<path d="M0 0 C2.97 0 5.94 0 9 0 C9 12.21 9 24.42 9 37 C8.01 36.67 7.02 36.34 6 36 C6.66 36 7.32 36 8 36 C7.67 25.11 7.34 14.22 7 3 C4.69 3 2.38 3 0 3 C0 2.01 0 1.02 0 0 Z " fill="#609E80" transform="translate(326,257)"/>
<path d="M0 0 C0.33 0 0.66 0 1 0 C1 2.31 1 4.62 1 7 C2.98 7.495 2.98 7.495 5 8 C5.33 5.69 5.66 3.38 6 1 C6.99 1 7.98 1 9 1 C7.33333333 6 5.66666667 11 4 16 C3.01 15.67 2.02 15.34 1 15 C-0.32286246 10.03926578 -0.08893197 5.08888488 0 0 Z " fill="#1B1E2E" transform="translate(182,238)"/>
<path d="M0 0 C-7.74612205 4.40586307 -16.8591085 6.41643921 -25.67578125 4.3828125 C-27.875 3.5625 -27.875 3.5625 -31 2 C-31 1.67 -31 1.34 -31 1 C-30.3702124 1.01047363 -29.7404248 1.02094727 -29.09155273 1.03173828 C-26.20690994 1.0736023 -23.32233134 1.09942201 -20.4375 1.125 C-19.44685547 1.14175781 -18.45621094 1.15851563 -17.43554688 1.17578125 C-12.86913172 1.20612288 -3.55768329 -1.77884164 0 0 Z " fill="#5CA77E" transform="translate(193,283)"/>
<path d="M0 0 C16.8929385 -0.3690205 16.8929385 -0.3690205 24 2 C24 2.99 24 3.98 24 5 C20 4 20 4 18.11621094 3.48461914 C16.00569373 3.00130388 14.05051739 2.7981335 11.890625 2.68359375 C11.13652344 2.64169922 10.38242188 2.59980469 9.60546875 2.55664062 C8.43951172 2.49766602 8.43951172 2.49766602 7.25 2.4375 C6.06083984 2.37272461 6.06083984 2.37272461 4.84765625 2.30664062 C2.89862185 2.20097009 0.94933252 2.10002034 -1 2 C-0.67 1.34 -0.34 0.68 0 0 Z " fill="#5A9B7A" transform="translate(167,207)"/>
<path d="M0 0 C4.29 0 8.58 0 13 0 C13.33 0.66 13.66 1.32 14 2 C16.52733235 2.65555119 16.52733235 2.65555119 19 3 C19 3.66 19 4.32 19 5 C12.05829437 4.66944259 6.20918975 4.24571282 0 1 C0 0.67 0 0.34 0 0 Z " fill="#58AF8A" transform="translate(159,291)"/>
<path d="M0 0 C5.28 0 10.56 0 16 0 C15.67 0.66 15.34 1.32 15 2 C11.37 2 7.74 2 4 2 C4 3.98 4 5.96 4 8 C0.78253679 5.34209561 0.91766992 4.58834962 0 0 Z " fill="#53A37B" transform="translate(273,278)"/>
<path d="M0 0 C0.66 0.99 1.32 1.98 2 3 C1.67 4.32 1.34 5.64 1 7 C-3.455 7.495 -3.455 7.495 -8 8 C-6.9802693 4.22699642 -6.34127338 3.19793856 -2.875 1.1875 C-1.92625 0.795625 -0.9775 0.40375 0 0 Z " fill="#45B17E" transform="translate(166,211)"/>
<path d="M0 0 C0.66 0.33 1.32 0.66 2 1 C1.98839844 1.68707031 1.97679687 2.37414062 1.96484375 3.08203125 C1.95582031 3.98308594 1.94679688 4.88414062 1.9375 5.8125 C1.92589844 6.70582031 1.91429687 7.59914063 1.90234375 8.51953125 C1.88990033 11.13413791 1.88990033 11.13413791 3 14 C1.125 13.8125 1.125 13.8125 -1 13 C-2.25 10.4375 -2.25 10.4375 -3 8 C-2.34 8 -1.68 8 -1 8 C-1.020625 6.865625 -1.04125 5.73125 -1.0625 4.5625 C-1 1 -1 1 0 0 Z " fill="#59A881" transform="translate(267,281)"/>
<path d="M0 0 C1.2989839 0.90626784 2.58893167 1.82549537 3.875 2.75 C4.59429687 3.26046875 5.31359375 3.7709375 6.0546875 4.296875 C8.08570565 6.07503547 8.97855012 7.52701607 10 10 C7.125 9.8125 7.125 9.8125 4 9 C2.625 6.4375 2.625 6.4375 2 4 C1.54625 4.495 1.0925 4.99 0.625 5.5 C-1 7 -1 7 -3 7 C-1.125 2.25 -1.125 2.25 0 0 Z M4 5 C5 7 5 7 5 7 Z " fill="#49AB77" transform="translate(309,260)"/>
<path d="M0 0 C0.33 0 0.66 0 1 0 C1.97299156 4.85729645 2.12038805 9.4500625 2.0625 14.375 C2.05798828 15.11105469 2.05347656 15.84710938 2.04882812 16.60546875 C2.03715142 18.40368158 2.01922011 20.20185197 2 22 C1.01 22.33 0.02 22.66 -1 23 C-0.67 15.41 -0.34 7.82 0 0 Z " fill="#5EA987" transform="translate(309,272)"/>
<path d="M0 0 C0.66 0.33 1.32 0.66 2 1 C1.649375 1.70125 1.29875 2.4025 0.9375 3.125 C-0.19195389 6.5886586 -0.07838759 8.53375417 1 12 C2.95163118 13.43637698 2.95163118 13.43637698 5 14 C5 14.66 5 15.32 5 16 C6.32 16.33 7.64 16.66 9 17 C8.34 17.33 7.68 17.66 7 18 C3.44328594 16.48650466 0.42335516 15.05057649 -2 12 C-2.36328125 9.84375 -2.36328125 9.84375 -2.3125 7.5 C-2.30863281 6.7265625 -2.30476563 5.953125 -2.30078125 5.15625 C-2 3 -2 3 0 0 Z " fill="#59A17E" transform="translate(342,261)"/>
<path d="M0 0 C0.33 0 0.66 0 1 0 C1 6.6 1 13.2 1 20 C-0.65 20.33 -2.3 20.66 -4 21 C-5.8125 19.5625 -5.8125 19.5625 -7 18 C-6.01 17.34 -5.02 16.68 -4 16 C-3.67 16.66 -3.34 17.32 -3 18 C-2.34 17.67 -1.68 17.34 -1 17 C-0.67 11.39 -0.34 5.78 0 0 Z " fill="#4EA87E" transform="translate(333,273)"/>
<path d="M0 0 C-2.27485643 3.60185602 -4.05262453 5.30877806 -8.125 6.375 C-12 7 -12 7 -14 6 C-3.55905512 -1.77952756 -3.55905512 -1.77952756 0 0 Z " fill="#1B2032" transform="translate(210,208)"/>
<path d="M0 0 C-1.58074564 0.81752303 -3.16471223 1.62881997 -4.75 2.4375 C-5.63171875 2.88996094 -6.5134375 3.34242188 -7.421875 3.80859375 C-12.0836217 5.96288578 -15.86065584 6.09883354 -21 6 C-18.02400668 4.01600445 -15.98682856 3.35492056 -12.5625 2.5 C-9.78690991 1.8051584 -7.36527935 1.19552023 -4.83984375 -0.15625 C-3 -1 -3 -1 0 0 Z " fill="#60A784" transform="translate(200,289)"/>
<path d="M0 0 C-0.66386719 0.37511719 -1.32773438 0.75023437 -2.01171875 1.13671875 C-6.97521791 4.01337447 -11.1966599 6.68954789 -15 11 C-15.66 10.67 -16.32 10.34 -17 10 C-14.60617502 4.93072358 -11.84008902 3.46250143 -7 1 C-6.2575 0.566875 -5.515 0.13375 -4.75 -0.3125 C-3 -1 -3 -1 0 0 Z " fill="#5CA482" transform="translate(163,219)"/>
<path d="M0 0 C3.14624993 -0.26218749 4.61837017 -0.24754367 7.3125 1.5 C8.1478125 2.2425 8.1478125 2.2425 9 3 C8.34 4.98 7.68 6.96 7 9 C3.7 8.67 0.4 8.34 -3 8 C-3 7.67 -3 7.34 -3 7 C-0.36 6.67 2.28 6.34 5 6 C5 5.01 5 4.02 5 3 C2.525 2.01 2.525 2.01 0 1 C0 0.67 0 0.34 0 0 Z " fill="#57A27D" transform="translate(353,279)"/>
<path d="M0 0 C0.66 0.33 1.32 0.66 2 1 C2 2.65 2 4.3 2 6 C0.25 6.75 0.25 6.75 -2 7 C-4.25 5.0625 -4.25 5.0625 -6 3 C-5.67 2.34 -5.34 1.68 -5 1 C-3.35 1.33 -1.7 1.66 0 2 C0 1.34 0 0.68 0 0 Z " fill="#232A3D" transform="translate(265,241)"/>
<path d="M0 0 C1.32 0.66 2.64 1.32 4 2 C4 2.99 4 3.98 4 5 C3.34 5 2.68 5 2 5 C0.37485532 6.45833358 0.37485532 6.45833358 -1 8 C-1.625 5.125 -1.625 5.125 -2 2 C-1.34 1.34 -0.68 0.68 0 0 Z " fill="#41A970" transform="translate(139,228)"/>
<path d="M0 0 C0.66 0 1.32 0 2 0 C6.28571429 7.42857143 6.28571429 7.42857143 8 11 C4.71573897 9.94434467 3.42848444 8.38339648 1.75 5.5 C0 2 0 2 0 0 Z " fill="#5A9D7A" transform="translate(151,281)"/>
<path d="M0 0 C0.99 0.33 1.98 0.66 3 1 C3 1.66 3 2.32 3 3 C4.65 3.33 6.3 3.66 8 4 C7.67 4.66 7.34 5.32 7 6 C3.04179141 5.43454163 0.3340947 4.19097652 -3 2 C-2.01 1.34 -1.02 0.68 0 0 Z " fill="#181E31" transform="translate(314,243)"/>
<path d="M0 0 C2 1 2 1 3.125 3.1875 C4.08328236 6.26769331 4.14915816 8.79309948 4 12 C0.46209597 8.30827405 0.40884117 4.90609405 0 0 Z " fill="#5CA07D" transform="translate(131,258)"/>
<path d="M0 0 C0.99 0.33 1.98 0.66 3 1 C3.6875 3.0625 3.6875 3.0625 4 5 C2.02 5.99 2.02 5.99 0 7 C0 6.01 0 5.02 0 4 C-0.66 4 -1.32 4 -2 4 C-1.34 2.68 -0.68 1.36 0 0 Z " fill="#41A971" transform="translate(151,260)"/>
<path d="M0 0 C0.99 0.33 1.98 0.66 3 1 C3 3.31 3 5.62 3 8 C2.01 8 1.02 8 0 8 C-1.125 2.25 -1.125 2.25 0 0 Z " fill="#3FAD71" transform="translate(207,273)"/>
<path d="M0 0 C-0.625 2.4375 -0.625 2.4375 -2 5 C-5.125 5.8125 -5.125 5.8125 -8 6 C-6.24081631 1.94034532 -4.71412298 0 0 0 Z " fill="#161A2B" transform="translate(281,213)"/>
<path d="M0 0 C-3.36423277 2.96052484 -6.69159287 3.92289822 -11 5 C-4.83050847 -1.61016949 -4.83050847 -1.61016949 0 0 Z " fill="#59A37E" transform="translate(178,219)"/>
<path d="M0 0 C0.33 0.66 0.66 1.32 1 2 C0.22265625 3.9453125 0.22265625 3.9453125 -0.9375 6.125 C-1.31777344 6.84945313 -1.69804687 7.57390625 -2.08984375 8.3203125 C-2.39019531 8.87460937 -2.69054687 9.42890625 -3 10 C-3.62109375 8.203125 -3.62109375 8.203125 -4 6 C-2.0625 2.75 -2.0625 2.75 0 0 Z " fill="#579F7A" transform="translate(217,265)"/>
<path d="M0 0 C2.31 0.66 4.62 1.32 7 2 C7 2.99 7 3.98 7 5 C3.64404172 4.40072174 1.62198774 3.15377564 -1 1 C-0.67 0.67 -0.34 0.34 0 0 Z " fill="#181B32" transform="translate(293,219)"/>
<path d="M0 0 C0.33 0.99 0.66 1.98 1 3 C-2.37462715 2.45276317 -4.08235 1.9451 -7 0 C-4.3333581 -1.33332095 -2.83319697 -0.67102033 0 0 Z " fill="#3EAB74" transform="translate(358,290)"/>
<path d="M0 0 C4.23830976 2.82553984 3.97715348 5.12180888 5 10 C2.4429149 7.77644774 1.75829088 6.24981807 1 3 C0.34 2.67 -0.32 2.34 -1 2 C-0.67 1.34 -0.34 0.68 0 0 Z " fill="#5CA582" transform="translate(157,273)"/>
<path d="M0 0 C0.33 0 0.66 0 1 0 C1.33 2.31 1.66 4.62 2 7 C1.01 7.33 0.02 7.66 -1 8 C-1.625 5.6875 -1.625 5.6875 -2 3 C-1.34 2.01 -0.68 1.02 0 0 Z " fill="#51A278" transform="translate(157,267)"/>
<path d="M0 0 C4.875 4.75 4.875 4.75 6 7 C3.03 6.505 3.03 6.505 0 6 C0 4.02 0 2.04 0 0 Z " fill="#54A27E" transform="translate(313,263)"/>
<path d="M0 0 C1.32 0.66 2.64 1.32 4 2 C0.04 3.98 0.04 3.98 -4 6 C-4 4.68 -4 3.36 -4 2 C-2.68 2 -1.36 2 0 2 C0 1.34 0 0.68 0 0 Z " fill="#52A07C" transform="translate(177,225)"/>
<path d="M0 0 C0.66 0 1.32 0 2 0 C2 0.66 2 1.32 2 2 C3.32 2.66 4.64 3.32 6 4 C6 4.66 6 5.32 6 6 C4.125 5.8125 4.125 5.8125 2 5 C0.75 2.4375 0.75 2.4375 0 0 Z " fill="#58A396" transform="translate(264,289)"/>
<path d="M0 0 C2.64 0.66 5.28 1.32 8 2 C8 2.66 8 3.32 8 4 C2.25 3.125 2.25 3.125 0 2 C0 1.34 0 0.68 0 0 Z " fill="#5AA480" transform="translate(349,269)"/>
<path d="M0 0 C-0.60183749 2.02045442 -1.27306096 4.02111039 -2 6 C-2.99 6.495 -2.99 6.495 -4 7 C-4.33 5.02 -4.66 3.04 -5 1 C-2 0 -2 0 0 0 Z " fill="#2C3341" transform="translate(213,235)"/>
<path d="M0 0 C1 3 1 3 -0.3125 5.6875 C-0.869375 6.450625 -1.42625 7.21375 -2 8 C-2.66 8 -3.32 8 -4 8 C-2.25 2.25 -2.25 2.25 0 0 Z " fill="#589F7B" transform="translate(138,226)"/>
<path d="" fill="#00FFAA" transform="translate(0,0)"/>
<path d="" fill="#00FF00" transform="translate(0,0)"/>
<path d="" fill="#00FFFF" transform="translate(0,0)"/>
<path d="" fill="#000000" transform="translate(0,0)"/>
</svg>
