<?xml version="1.0" encoding="UTF-8"?>
<svg version="1.1" xmlns="http://www.w3.org/2000/svg" width="500" height="500">
<path d="M0 0 C-0.29166667 1.75 -0.58333333 3.5 -0.875 5.25 C-1.14570313 6.88388672 -1.14570313 6.88388672 -1.421875 8.55078125 C-1.79880319 10.79961632 -2.18383474 13.04711274 -2.578125 15.29296875 C-2.84882813 16.84951172 -2.84882813 16.84951172 -3.125 18.4375 C-3.29257813 19.38496094 -3.46015625 20.33242187 -3.6328125 21.30859375 C-3.99055543 23.93077329 -4.16595357 26.3585723 -4 29 C-3.54625 29.45375 -3.0925 29.9075 -2.625 30.375 C1.38666507 34.38666507 1.20246221 40.2763286 1.375 45.625 C1.11528654 59.2310995 -3.647667 69.75906598 -13.3203125 79.28515625 C-23.25963957 87.8342559 -33.94769334 91.28505038 -47 91 C-50.77886496 90.641247 -54.33710373 89.98707919 -58 89 C-58.6909375 88.82726562 -59.381875 88.65453125 -60.09375 88.4765625 C-63.9895763 87.20546663 -65.61433897 85.4382224 -67.4375 81.9375 C-68.40353129 79.76696107 -69 78.37791729 -69 76 C-69.66 76 -70.32 76 -71 76 C-73.83076522 59.71725129 -74.58975824 44.38463735 -65 30 C-64.34 30 -63.68 30 -63 30 C-62.85691406 29.12988281 -62.85691406 29.12988281 -62.7109375 28.2421875 C-60.69697121 21.89044767 -53.92954366 17.73035794 -48.375 14.6875 C-46.59083954 13.77680892 -44.79980958 12.87935902 -43 12 C-42.32839844 11.65839844 -41.65679687 11.31679687 -40.96484375 10.96484375 C-39.64994521 10.29651471 -38.3263708 9.64526147 -37 9 C-41.01494516 9.6475718 -44.7163255 10.86265067 -48.54296875 12.1953125 C-51 13 -51 13 -53.48828125 13.6171875 C-62.61792283 15.91734603 -69.41099868 21.10874255 -74.78125 28.8359375 C-78.95285128 36.24320388 -80.27250207 44.40425373 -78.390625 52.6796875 C-77.2851323 56.57147304 -76.25901218 59.61148174 -74 63 C-73.41655193 65.29750124 -72.90331693 67.613293 -72.4375 69.9375 C-71.32399611 75.49282783 -71.32399611 75.49282783 -70 81 C-75.20487696 80.33270808 -76.99201259 78.44859602 -80.2265625 74.5078125 C-88.3251723 63.05559335 -91.20708332 51.52569875 -89.7578125 37.6875 C-87.77429278 26.3531016 -80.86765683 17.03668315 -72 10 C-59.55315841 2.04580537 -48.2577522 0.04551134 -33.80078125 2.296875 C-31 3 -31 3 -29 5 C-29.20252461 10.36690215 -30.39896001 13.09029944 -34 17 C-34.515625 17.804375 -35.03125 18.60875 -35.5625 19.4375 C-38.08746411 22.09194945 -40.1374007 23.22334244 -43.375 24.875 C-48.50619987 27.54650353 -51.75582931 30.23907418 -55 35 C-55.721875 36.051875 -56.44375 37.10375 -57.1875 38.1875 C-62.46238907 47.9868755 -63.19576593 58.32985026 -60.1875 68.8125 C-58.64929383 74.10207118 -58.64929383 74.10207118 -55 78 C-48.51240963 80.51321068 -37.9572846 80.07939877 -31.4375 77.75 C-28.06331023 76.03223066 -25.10831655 74.14621857 -22 72 C-21.34 72 -20.68 72 -20 72 C-19.505 70.515 -19.505 70.515 -19 69 C-18.34 69 -17.68 69 -17 69 C-16.731875 68.278125 -16.46375 67.55625 -16.1875 66.8125 C-15 64 -15 64 -13.4375 61.5 C-10.14838626 55.77980219 -10.72086871 49.02286077 -10.4765625 42.59375 C-9.99132284 38.93456565 -9.13232457 36.96472935 -7 34 C-7.825 35.010625 -8.65 36.02125 -9.5 37.0625 C-14.57340702 42.94574663 -21.12685605 50.16403576 -29 52 C-31.234375 51.08984375 -31.234375 51.08984375 -33 50 C-32.32700205 46.9969336 -31.35701211 44.28313957 -30.15234375 41.453125 C-29.79462891 40.60878906 -29.43691406 39.76445312 -29.06835938 38.89453125 C-28.69517578 38.02183594 -28.32199219 37.14914063 -27.9375 36.25 C-27.56044922 35.36183594 -27.18339844 34.47367188 -26.79492188 33.55859375 C-25.86589619 31.37126745 -24.93417248 29.18513197 -24 27 C-25.29761299 29.37191584 -26.58816317 31.74724614 -27.875 34.125 C-28.23980469 34.79015625 -28.60460937 35.4553125 -28.98046875 36.140625 C-31.06980244 40.01538929 -32.74424611 43.75687369 -34 48 C-34.66 48 -35.32 48 -36 48 C-39.35876797 40.00035371 -39.40383329 33.32646934 -37 25 C-31.62687361 12.43353501 -20.2649394 4.8268228 -7.9453125 -0.26171875 C-4.83224875 -1.04204905 -3.04682861 -0.89612606 0 0 Z M-23 24 C-22 26 -22 26 -22 26 Z " fill="#46AB6F" transform="translate(220,205)"/>
<path d="M0 0 C-0.29166667 1.75 -0.58333333 3.5 -0.875 5.25 C-1.05546875 6.33925781 -1.2359375 7.42851562 -1.421875 8.55078125 C-1.79880319 10.79961632 -2.18383474 13.04711274 -2.578125 15.29296875 C-2.75859375 16.33066406 -2.9390625 17.36835938 -3.125 18.4375 C-3.29257813 19.38496094 -3.46015625 20.33242187 -3.6328125 21.30859375 C-3.98894991 23.91900521 -4.06147917 26.36957001 -4 29 C-4 29.99 -4 30.98 -4 32 C-4.99 32.33 -5.98 32.66 -7 33 C-8.38981178 34.62771184 -8.38981178 34.62771184 -9.6875 36.625 C-14.28828734 42.96386256 -21.0575851 50.14788224 -29 52 C-31.234375 51.08984375 -31.234375 51.08984375 -33 50 C-32.32700205 46.9969336 -31.35701211 44.28313957 -30.15234375 41.453125 C-29.79462891 40.60878906 -29.43691406 39.76445312 -29.06835938 38.89453125 C-28.69517578 38.02183594 -28.32199219 37.14914063 -27.9375 36.25 C-27.56044922 35.36183594 -27.18339844 34.47367188 -26.79492188 33.55859375 C-25.86589619 31.37126745 -24.93417248 29.18513197 -24 27 C-25.29761299 29.37191584 -26.58816317 31.74724614 -27.875 34.125 C-28.23980469 34.79015625 -28.60460937 35.4553125 -28.98046875 36.140625 C-31.06980244 40.01538929 -32.74424611 43.75687369 -34 48 C-34.66 48 -35.32 48 -36 48 C-39.35876797 40.00035371 -39.40383329 33.32646934 -37 25 C-31.62687361 12.43353501 -20.2649394 4.8268228 -7.9453125 -0.26171875 C-4.83224875 -1.04204905 -3.04682861 -0.89612606 0 0 Z M-23 24 C-22 26 -22 26 -22 26 Z " fill="#DEE7D3" transform="translate(220,205)"/>
<path d="M0 0 C0.66 0.66 1.32 1.32 2 2 C1.625 4.125 1.625 4.125 1 6 C-1.73285 6.70273286 -3.58307626 7.10319209 -6.3515625 6.41796875 C-9.57367157 5.90946481 -11.18631808 6.52647532 -14.1875 7.75 C-17.81838511 9.18773303 -21.33678026 10.37283239 -25.125 11.3125 C-33.7162936 13.84897716 -40.64063754 20.25933718 -45 28 C-49.25507841 37.96075174 -48.93698573 46.99499956 -45 57 C-44.34 57.99 -43.68 58.98 -43 60 C-42.41655193 62.29750124 -41.90331693 64.613293 -41.4375 66.9375 C-40.32399611 72.49282783 -40.32399611 72.49282783 -39 78 C-44.20487696 77.33270808 -45.99201259 75.44859602 -49.2265625 71.5078125 C-57.3251723 60.05559335 -60.20708332 48.52569875 -58.7578125 34.6875 C-56.77590051 23.36228863 -49.87236538 14.02146816 -41 7 C-27.53050103 -1.42819171 -15.35178626 -3.26248114 0 0 Z " fill="#D9E5D1" transform="translate(189,208)"/>
<path d="M0 0 C6.3140229 2.12346604 10.91488541 10.66010416 13.91015625 16.3046875 C14.14605469 16.82546875 14.38195312 17.34625 14.625 17.8828125 C15.615 17.8828125 16.605 17.8828125 17.625 17.8828125 C17.61339844 17.24214844 17.60179687 16.60148437 17.58984375 15.94140625 C17.53616881 10.79628028 17.74330422 5.95256326 18.625 0.8828125 C21.595 0.8828125 24.565 0.8828125 27.625 0.8828125 C27.64964928 6.13386692 27.66783568 11.38488795 27.67993164 16.63598633 C27.68497218 18.42375271 27.69180454 20.21151495 27.70043945 21.99926758 C27.7125173 24.56332418 27.71823094 27.12732647 27.72265625 29.69140625 C27.72781754 30.4955748 27.73297882 31.29974335 27.73829651 32.12828064 C27.73849215 34.04682965 27.68701983 35.96526618 27.625 37.8828125 C26.625 38.8828125 26.625 38.8828125 23.875 39.2578125 C17.86511329 38.56436403 14.55497249 32.69719253 10.9375 28.1953125 C7.91129616 24.42191927 7.91129616 24.42191927 4.625 20.8828125 C4.56441406 22.09839844 4.50382812 23.31398438 4.44140625 24.56640625 C4.35701668 26.15105478 4.2723679 27.73568952 4.1875 29.3203125 C4.12852539 30.52397461 4.12852539 30.52397461 4.06835938 31.75195312 C3.73828125 37.76953125 3.73828125 37.76953125 2.625 38.8828125 C-3.11111111 39.15596065 -3.11111111 39.15596065 -5.375 38.8828125 C-7.90084607 36.35696643 -7.61204324 34.79074757 -7.62724304 31.3455658 C-7.62005753 30.59344315 -7.61287201 29.8413205 -7.60546875 29.06640625 C-7.60501053 28.29474625 -7.60455231 27.52308624 -7.6040802 26.7280426 C-7.60105787 25.09643008 -7.59317213 23.46482045 -7.58081055 21.83325195 C-7.56254787 19.3268825 -7.56030088 16.82088217 -7.56054688 14.31445312 C-7.55563198 12.73176762 -7.54980379 11.14908463 -7.54296875 9.56640625 C-7.54185593 8.81225937 -7.5407431 8.05811249 -7.53959656 7.28111267 C-7.48086871 0.89090179 -6.37096931 0.02041977 0 0 Z " fill="#44AB6F" transform="translate(307.375,256.1171875)"/>
<path d="M0 0 C5.5311926 3.26413833 9.33391268 7.01095066 12.18359375 12.83984375 C13.28010781 18.43206545 12.75793928 23.09067888 10.24609375 28.21484375 C6.33776309 32.72445606 1.85075074 36.96877688 -4.19140625 38.02734375 C-10.07104919 38.41931995 -15.0471216 38.11802175 -20.19140625 35.02734375 C-24.55134049 31.14708793 -28.24985308 26.91205106 -29.19140625 21.02734375 C-29.4571924 14.47128551 -28.24881303 9.78484099 -24.01171875 4.71875 C-17.36297363 -1.45916123 -8.42901321 -3.74121977 0 0 Z M-17.19140625 12.02734375 C-18.70828096 16.57796788 -18.91036449 20.40968771 -16.94140625 24.83984375 C-15.00526165 27.2600245 -14.17848546 28.22002504 -11.19140625 29.02734375 C-5.98565547 29.02734375 -4.1499808 28.86609648 -0.19140625 25.40234375 C2.14195137 21.46480276 2.46323646 19.52801238 1.80859375 15.02734375 C0.1572007 11.48864435 -0.90745854 10.21664222 -4.19140625 8.02734375 C-10.01842909 7.46343831 -12.9815141 7.56230662 -17.19140625 12.02734375 Z " fill="#DDE6D3" transform="translate(334.19140625,211.97265625)"/>
<path d="M0 0 C1.20970459 0.00523682 2.41940918 0.01047363 3.66577148 0.01586914 C4.97094727 0.0190918 6.27612305 0.02231445 7.62084961 0.02563477 C9.00952213 0.03399138 10.39819401 0.04245634 11.78686523 0.05102539 C13.17944179 0.05603873 14.57202005 0.06060193 15.96459961 0.06469727 C19.38456394 0.07653105 22.80444367 0.09301659 26.22436523 0.11352539 C26.22436523 2.75352539 26.22436523 5.39352539 26.22436523 8.11352539 C19.95436523 8.11352539 13.68436523 8.11352539 7.22436523 8.11352539 C7.22436523 10.09352539 7.22436523 12.07352539 7.22436523 14.11352539 C8.36776367 14.10192383 9.51116211 14.09032227 10.68920898 14.07836914 C12.18009278 14.06899251 13.67097832 14.05989218 15.16186523 14.05102539 C16.29398437 14.03845703 16.29398437 14.03845703 17.44897461 14.02563477 C19.37430837 14.01700098 21.29972104 14.06128206 23.22436523 14.11352539 C24.22436523 15.11352539 24.22436523 15.11352539 24.34936523 18.61352539 C24.22436523 22.11352539 24.22436523 22.11352539 23.22436523 23.11352539 C20.5278167 23.1867216 17.85745065 23.20595076 15.16186523 23.17602539 C14.40325195 23.17151367 13.64463867 23.16700195 12.86303711 23.16235352 C10.98344652 23.15053219 9.10389625 23.13259617 7.22436523 23.11352539 C7.22436523 25.09352539 7.22436523 27.07352539 7.22436523 29.11352539 C13.49436523 29.11352539 19.76436523 29.11352539 26.22436523 29.11352539 C27.1834138 32.94971964 27.1432864 34.43784075 26.22436523 38.11352539 C22.27339546 38.16292201 18.32254494 38.19924294 14.37133789 38.22338867 C12.36525163 38.23840646 10.35925199 38.2638152 8.35327148 38.28930664 C7.09643555 38.29575195 5.83959961 38.30219727 4.54467773 38.30883789 C3.38210449 38.31931152 2.21953125 38.32978516 1.02172852 38.34057617 C-1.77563477 38.11352539 -1.77563477 38.11352539 -3.77563477 36.11352539 C-3.96301126 33.47236426 -4.03133343 30.93798559 -4.00610352 28.29711914 C-4.00564529 27.52545914 -4.00518707 26.75379913 -4.00471497 25.95875549 C-4.00169264 24.32714297 -3.9938069 22.69553334 -3.98144531 21.06396484 C-3.96318264 18.55759539 -3.96093565 16.05159506 -3.96118164 13.54516602 C-3.95626675 11.96248051 -3.95043855 10.37979752 -3.94360352 8.79711914 C-3.94249069 8.04297226 -3.94137787 7.28882538 -3.94023132 6.51182556 C-3.88184495 0.15877016 -3.88184495 0.15877016 0 0 Z " fill="#44AC71" transform="translate(269.775634765625,256.886474609375)"/>
<path d="M0 0 C1.15757812 -0.00257813 2.31515625 -0.00515625 3.5078125 -0.0078125 C4.72210938 -0.00007812 5.93640625 0.00765625 7.1875 0.015625 C8.40179688 0.00789062 9.61609375 0.00015625 10.8671875 -0.0078125 C12.60355469 -0.00394531 12.60355469 -0.00394531 14.375 0 C15.44105469 0.00225586 16.50710938 0.00451172 17.60546875 0.00683594 C20.1875 0.265625 20.1875 0.265625 22.1875 2.265625 C22.375 5.328125 22.375 5.328125 22.1875 8.265625 C21.1875 9.265625 21.1875 9.265625 19.42163086 9.37915039 C18.67276611 9.37391357 17.92390137 9.36867676 17.15234375 9.36328125 C16.34345703 9.36005859 15.53457031 9.35683594 14.70117188 9.35351562 C13.85103516 9.34513672 13.00089844 9.33675781 12.125 9.328125 C11.27099609 9.32361328 10.41699219 9.31910156 9.53710938 9.31445312 C7.42054337 9.30262873 5.30401315 9.28469269 3.1875 9.265625 C3.1875 11.245625 3.1875 13.225625 3.1875 15.265625 C4.24710938 15.24242187 5.30671875 15.21921875 6.3984375 15.1953125 C7.7864513 15.17655556 9.1744727 15.15835528 10.5625 15.140625 C11.61050781 15.11548828 11.61050781 15.11548828 12.6796875 15.08984375 C14.51647486 15.07218233 16.35351963 15.16259239 18.1875 15.265625 C18.8475 15.925625 19.5075 16.585625 20.1875 17.265625 C19.8575 19.245625 19.5275 21.225625 19.1875 23.265625 C13.9075 23.265625 8.6275 23.265625 3.1875 23.265625 C3.1875 24.915625 3.1875 26.565625 3.1875 28.265625 C4.30777961 29.61667874 4.30777961 29.61667874 7.20703125 29.328125 C9.72786671 29.28658703 12.24870006 29.24492116 14.76953125 29.203125 C17.51026317 29.25324124 19.60717117 29.43368019 22.1875 30.265625 C23.3125 36.015625 23.3125 36.015625 22.1875 38.265625 C18.0757744 38.29028246 13.96407722 38.30846459 9.85229492 38.32055664 C8.45254772 38.3255958 7.0528058 38.33242716 5.65307617 38.34106445 C3.64504223 38.3531482 1.63697043 38.35832307 -0.37109375 38.36328125 C-1.58079834 38.36851807 -2.79050293 38.37375488 -4.03686523 38.37915039 C-6.8125 38.265625 -6.8125 38.265625 -7.8125 37.265625 C-7.92582093 34.69543015 -7.97667485 32.15311023 -7.98046875 29.58203125 C-7.98546135 28.42597633 -7.98546135 28.42597633 -7.99055481 27.24656677 C-7.9956271 25.61319579 -7.99796304 23.9798144 -7.99780273 22.34643555 C-7.9999878 19.84211201 -8.01813595 17.33822979 -8.03710938 14.83398438 C-8.04004347 13.25000151 -8.04202816 11.66601655 -8.04296875 10.08203125 C-8.05015427 9.3299086 -8.05733978 8.57778595 -8.06474304 7.8028717 C-8.0348345 1.02381525 -6.58304541 0.01393027 0 0 Z " fill="#DCE5D2" transform="translate(243.8125,210.734375)"/>
<path d="M0 0 C0.75990234 -0.020625 1.51980469 -0.04125 2.30273438 -0.0625 C6.96140828 -0.09488001 9.83952788 0.33137843 13.6875 3.25 C13.14026317 6.62462715 12.6326 8.33235 10.6875 11.25 C9.676875 10.92 8.66625 10.59 7.625 10.25 C3.93270089 9.17998679 0.53501793 9.09295845 -3.3125 9.25 C-3.6425 10.24 -3.9725 11.23 -4.3125 12.25 C-3.11753906 12.61351562 -3.11753906 12.61351562 -1.8984375 12.984375 C10.27112989 16.83362989 10.27112989 16.83362989 13.6875 20.25 C15.08255889 24.51535248 15.21645676 27.96936785 13.5 32.125 C10.29025667 35.88814735 7.36782231 37.97795398 2.33984375 38.48828125 C-4.72794178 38.68150129 -9.96783977 37.33287178 -16.3125 34.25 C-15.4375 28.5 -15.4375 28.5 -14.3125 26.25 C-11.18959365 26.73578543 -8.31669641 27.2486012 -5.3125 28.25 C-3.91810336 28.31665376 -2.52080125 28.33538199 -1.125 28.3125 C0.133125 28.291875 1.39125 28.27125 2.6875 28.25 C2.6875 27.26 2.6875 26.27 2.6875 25.25 C1.80707031 25.01925781 0.92664063 24.78851563 0.01953125 24.55078125 C-12.42942472 21.05512547 -12.42942472 21.05512547 -15.3125 16.25 C-16.15767011 12.34921489 -16.25065878 8.90902343 -14.25 5.37109375 C-9.92503518 0.02924732 -6.48903351 0.04336865 0 0 Z " fill="#47AA6E" transform="translate(355.3125,256.75)"/>
<path d="M0 0 C4.25145349 2.94331395 4.25145349 2.94331395 5.4375 4.6875 C5.28011966 7.20558551 4.59977577 8.46340488 3.125 10.5 C1.4375 11.6875 1.4375 11.6875 -0.5625 11.5 C-2.5625 10.6875 -2.5625 10.6875 -5.5625 8.6875 C-11.13189351 8.07212431 -11.13189351 8.07212431 -16 10.3125 C-17.96314753 13.29648425 -18.49223805 15.10414077 -18.5625 18.6875 C-17.45651025 22.18009921 -16.63003591 24.77246922 -13.8125 27.1875 C-9.41062243 28.16569502 -5.49603003 27.05359021 -1.375 25.4375 C-0.446875 25.19 0.48125 24.9425 1.4375 24.6875 C3.8125 26.0625 3.8125 26.0625 5.4375 27.6875 C5.3125 29.9375 5.3125 29.9375 4.4375 32.6875 C-0.58673394 36.61950917 -4.74184424 38.10691518 -11.015625 38.03515625 C-16.86270987 37.23701123 -21.88320458 34.32481304 -26.0625 30.25 C-29.18488322 24.91592866 -30.30449212 19.85082168 -29.5625 13.6875 C-27.55996949 6.85533707 -23.5939329 3.18274479 -17.70703125 -0.4609375 C-12.20707778 -2.64488988 -5.43205457 -2.00128326 0 0 Z " fill="#DEE6D2" transform="translate(298.5625,212.3125)"/>
<path d="M0 0 C1.64574566 -0.02688151 3.29161413 -0.04634123 4.9375 -0.0625 C5.85402344 -0.07410156 6.77054688 -0.08570313 7.71484375 -0.09765625 C10 0 10 0 11 1 C11.08758003 2.99964982 11.10696576 5.0023611 11.09765625 7.00390625 C11.09443359 8.21884766 11.09121094 9.43378906 11.08789062 10.68554688 C11.07951172 11.96494141 11.07113281 13.24433594 11.0625 14.5625 C11.05798828 15.84576172 11.05347656 17.12902344 11.04882812 18.45117188 C11.03699545 21.63416022 11.02051068 24.81705762 11 28 C12.14339844 27.98839844 13.28679687 27.97679687 14.46484375 27.96484375 C15.95572754 27.95546712 17.44661309 27.94636679 18.9375 27.9375 C19.69224609 27.92912109 20.44699219 27.92074219 21.22460938 27.91210938 C23.14994313 27.90347559 25.07535581 27.94775667 27 28 C28 29 28 29 28.09765625 31.06640625 C28.08605469 31.89011719 28.07445312 32.71382813 28.0625 33.5625 C28.05347656 34.38878906 28.04445313 35.21507812 28.03515625 36.06640625 C28.02355469 36.70449219 28.01195312 37.34257812 28 38 C23.52084672 38.02886338 19.04171709 38.04675187 14.5625 38.0625 C13.28310547 38.07087891 12.00371094 38.07925781 10.68554688 38.08789062 C9.47060547 38.09111328 8.25566406 38.09433594 7.00390625 38.09765625 C5.87799072 38.10289307 4.7520752 38.10812988 3.59204102 38.11352539 C1 38 1 38 0 37 C-0.08858646 34.26105915 -0.11523479 31.5474673 -0.09765625 28.80859375 C-0.0962413 27.98875504 -0.09482635 27.16891632 -0.09336853 26.32423401 C-0.08775289 23.69528618 -0.07519779 21.06642227 -0.0625 18.4375 C-0.05748701 16.65950643 -0.05292376 14.88151154 -0.04882812 13.10351562 C-0.03777839 8.73564455 -0.02050331 4.36783652 0 0 Z " fill="#44AC71" transform="translate(236,257)"/>
<path d="M0 0 C1.64574566 -0.02688151 3.29161413 -0.04634123 4.9375 -0.0625 C5.85402344 -0.07410156 6.77054688 -0.08570313 7.71484375 -0.09765625 C10 0 10 0 11 1 C11.08758003 2.99964982 11.10696576 5.0023611 11.09765625 7.00390625 C11.09443359 8.21884766 11.09121094 9.43378906 11.08789062 10.68554688 C11.07951172 11.96494141 11.07113281 13.24433594 11.0625 14.5625 C11.05798828 15.84576172 11.05347656 17.12902344 11.04882812 18.45117188 C11.03699545 21.63416022 11.02051068 24.81705762 11 28 C12.14339844 27.98839844 13.28679687 27.97679687 14.46484375 27.96484375 C15.95572754 27.95546712 17.44661309 27.94636679 18.9375 27.9375 C19.69224609 27.92912109 20.44699219 27.92074219 21.22460938 27.91210938 C23.14994313 27.90347559 25.07535581 27.94775667 27 28 C28 29 28 29 28.09765625 31.06640625 C28.08605469 31.89011719 28.07445312 32.71382813 28.0625 33.5625 C28.05347656 34.38878906 28.04445313 35.21507812 28.03515625 36.06640625 C28.02355469 36.70449219 28.01195312 37.34257812 28 38 C23.52084672 38.02886338 19.04171709 38.04675187 14.5625 38.0625 C13.28310547 38.07087891 12.00371094 38.07925781 10.68554688 38.08789062 C9.47060547 38.09111328 8.25566406 38.09433594 7.00390625 38.09765625 C5.87799072 38.10289307 4.7520752 38.10812988 3.59204102 38.11352539 C1 38 1 38 0 37 C-0.08858646 34.26105915 -0.11523479 31.5474673 -0.09765625 28.80859375 C-0.0962413 27.98875504 -0.09482635 27.16891632 -0.09336853 26.32423401 C-0.08775289 23.69528618 -0.07519779 21.06642227 -0.0625 18.4375 C-0.05748701 16.65950643 -0.05292376 14.88151154 -0.04882812 13.10351562 C-0.03777839 8.73564455 -0.02050331 4.36783652 0 0 Z M2 2 C2 13.22 2 24.44 2 36 C9.92 36 17.84 36 26 36 C26 34.35 26 32.7 26 31 C23.88074396 28.88074396 19.3803907 29.58168983 16.4375 29.4375 C15.63119141 29.39431641 14.82488281 29.35113281 13.99414062 29.30664062 C11.99631195 29.20024738 9.9981793 29.09959112 8 29 C8.33 28.34 8.66 27.68 9 27 C9.084915 25.1136088 9.107193 23.22421485 9.09765625 21.3359375 C9.09443359 20.21445312 9.09121094 19.09296875 9.08789062 17.9375 C9.07951172 16.761875 9.07113281 15.58625 9.0625 14.375 C9.05798828 13.19164062 9.05347656 12.00828125 9.04882812 10.7890625 C9.03701467 7.85932493 9.02054258 4.92968728 9 2 C6.69 2 4.38 2 2 2 Z " fill="#5CA179" transform="translate(236,257)"/>
<path d="M0 0 C0.99 0.495 0.99 0.495 2 1 C2.49698823 2.62885736 2.92470307 4.27925178 3.3125 5.9375 C4.34520996 10.09888686 4.34520996 10.09888686 7.6875 12.625 C8.450625 12.74875 9.21375 12.8725 10 13 C11.06546953 9.8035914 11.07427838 7.34252724 11 4 C13 8 13 8 13.75 10.125 C15.63812417 12.95718625 17.7546169 13.13431467 21 14 C29.22818221 14.69016343 36.51121833 14.6003758 44 11 C44.99 10.67 45.98 10.34 47 10 C47 10.66 47 11.32 47 12 C45.730447 12.64834654 44.45930294 13.29357815 43.1875 13.9375 C42.47980469 14.29714844 41.77210938 14.65679687 41.04296875 15.02734375 C32.70278379 18.99810102 22.62494287 17.33896756 14 15 C12.515 17.475 12.515 17.475 11 20 C11.66 20 12.32 20 13 20 C13 19.34 13 18.68 13 18 C13.66 18.33 14.32 18.66 15 19 C14.67 19.66 14.34 20.32 14 21 C15.56116819 21.33951619 17.12401338 21.67132544 18.6875 22 C19.55761719 22.185625 20.42773438 22.37125 21.32421875 22.5625 C23.93712964 22.98972047 26.35813038 23.07616201 29 23 C29.33 22.01 29.66 21.02 30 20 C30 20.99 30 21.98 30 23 C32.3431213 22.74438677 34.67843403 22.40729228 37 22 C37.33 21.34 37.66 20.68 38 20 C40.76276177 20.52268466 43.3260876 21.10869587 46 22 C36.2560333 27.33598176 24.48244973 26.824816 14 24 C13.3090625 23.82726562 12.618125 23.65453125 11.90625 23.4765625 C8.0104237 22.20546663 6.38566103 20.4382224 4.5625 16.9375 C3.59646871 14.76696107 3 13.37791729 3 11 C2.34 11 1.68 11 1 11 C0.67 7.37 0.34 3.74 0 0 Z " fill="#50A576" transform="translate(148,270)"/>
<path d="M0 0 C5.875 0.875 5.875 0.875 7 2 C7.1264848 4.24731125 7.17582553 6.49916239 7.1875 8.75 C7.20167969 9.98234375 7.21585937 11.2146875 7.23046875 12.484375 C7.01005382 15.84663669 6.43978584 17.99291961 5 21 C3.72054595 23.98539277 3 25.72477948 3 29 C3.66 29.33 4.32 29.66 5 30 C5 30.99 5 31.98 5 33 C2 34 2 34 -1 33 C-4 28.66666667 -4 28.66666667 -4 26 C-4.66 25.67 -5.32 25.34 -6 25 C-5.34 25 -4.68 25 -4 25 C-3.67 21.7 -3.34 18.4 -3 15 C-2.67 15 -2.34 15 -2 15 C-2.02320313 14.33613281 -2.04640625 13.67226563 -2.0703125 12.98828125 C-2.24956063 4.21792619 -2.24956063 4.21792619 0 0 Z " fill="#43AC6E" transform="translate(327,259)"/>
<path d="M0 0 C3 1.125 3 1.125 4.9375 4.5625 C6 8.125 6 8.125 5 10.125 C4.34 10.125 3.68 10.125 3 10.125 C2.31292445 12.61564888 2 14.50386292 2 17.125 C-0.6881249 17.20664159 -3.373723 17.26579668 -6.0625 17.3125 C-6.81466797 17.33763672 -7.56683594 17.36277344 -8.34179688 17.38867188 C-13.66631856 17.45782151 -17.24346434 16.53169334 -22 14.125 C-22 13.135 -22 12.145 -22 11.125 C-16.375 10 -16.375 10 -13 11.125 C-11.04322445 11.28254704 -11.04322445 11.28254704 -9 11.25 C-7.9790625 11.25386719 -7.9790625 11.25386719 -6.9375 11.2578125 C-4.78125219 11.19131126 -4.78125219 11.19131126 -2 10.125 C-1.67 8.475 -1.34 6.825 -1 5.125 C-2.65 4.465 -4.3 3.805 -6 3.125 C-4.09985963 0.48591615 -3.32136098 0.13839004 0 0 Z " fill="#42A96D" transform="translate(363,275.875)"/>
<path d="M0 0 C2.09211085 0.47241213 4.18278584 0.95307988 6.26171875 1.48046875 C12.41640539 2.64819104 19.08526162 2.60207233 25.21484375 1.3359375 C26.13394531 1.22507812 27.05304688 1.11421875 28 1 C30.875 3.4375 30.875 3.4375 33 6 C32.67 6.66 32.34 7.32 32 8 C29 8 26 8 23 8 C21.92234375 8.16757812 20.8446875 8.33515625 19.734375 8.5078125 C19.09113281 8.60707031 18.44789063 8.70632813 17.78515625 8.80859375 C16.44241847 9.01734953 15.10116235 9.23590152 13.76171875 9.46484375 C8.41021689 10.2627814 4.77184677 9.38592339 0 7 C-0.33 6.67 -0.66 6.34 -1 6 C-1.66 6 -2.32 6 -3 6 C-3 4.68 -3 3.36 -3 2 C-2.01 1.34 -1.02 0.68 0 0 Z " fill="#41AB6E" transform="translate(162,284)"/>
<path d="M0 0 C2.97 0 5.94 0 9 0 C9.02464928 5.25105442 9.04283568 10.50207545 9.05493164 15.75317383 C9.05997218 17.54094021 9.06680454 19.32870245 9.07543945 21.11645508 C9.0875173 23.68051168 9.09323094 26.24451397 9.09765625 28.80859375 C9.10281754 29.6127623 9.10797882 30.41693085 9.11329651 31.24546814 C9.11349215 33.16401715 9.06201983 35.08245368 9 37 C8 38 8 38 5.25 38.375 C0.91158607 37.87441378 -0.31133354 36.36083307 -3 33 C-4.3125 30.1875 -4.3125 30.1875 -5 28 C-4.34 28 -3.68 28 -3 28 C0 32.38461538 0 32.38461538 0 35 C1.98 35 3.96 35 6 35 C6 34.01 6 33.02 6 32 C5.01 31.67 4.02 31.34 3 31 C3.656379 26.51474352 4.70074209 22.33085971 6 18 C6.66 18 7.32 18 8 18 C7.835 17.360625 7.67 16.72125 7.5 16.0625 C6.84067485 12.02413348 6.91996221 8.08192742 7 4 C4.69 3.67 2.38 3.34 0 3 C0 2.01 0 1.02 0 0 Z " fill="#49AA76" transform="translate(326,257)"/>
<path d="M0 0 C1.91808109 0.45237761 3.83442033 0.91214463 5.75 1.375 C6.81734375 1.63023437 7.8846875 1.88546875 8.984375 2.1484375 C11.55852722 2.87533541 13.67600186 3.7026224 16 5 C15.67 6.65 15.34 8.3 15 10 C14.34 10 13.68 10 13 10 C12.67 10.66 12.34 11.32 12 12 C9.36 11.67 6.72 11.34 4 11 C3.67 11.66 3.34 12.32 3 13 C2.34 12.67 1.68 12.34 1 12 C1 11.34 1 10.68 1 10 C-0.98 10.33 -2.96 10.66 -5 11 C-5 11.99 -5 12.98 -5 14 C-4.21625 13.95875 -3.4325 13.9175 -2.625 13.875 C0 14 0 14 2 16 C5.35744112 16.24377883 5.35744112 16.24377883 9.125 16.125 C10.40632813 16.10695313 11.68765625 16.08890625 13.0078125 16.0703125 C14.48894531 16.03550781 14.48894531 16.03550781 16 16 C16.33 16.66 16.66 17.32 17 18 C8.51641986 20.82786005 0.79970234 18.78987706 -7 15 C-6.125 9.25 -6.125 9.25 -5 7 C-1.87709365 7.48578543 0.99580359 7.9986012 4 9 C5.39439664 9.06665376 6.79169875 9.08538199 8.1875 9.0625 C9.445625 9.041875 10.70375 9.02125 12 9 C12 8.01 12 7.02 12 6 C8.04 4.68 4.08 3.36 0 2 C0 1.34 0 0.68 0 0 Z " fill="#559F77" transform="translate(346,276)"/>
<path d="M0 0 C2.33524782 2.25740623 4.18705073 4.2805761 6 7 C9.16050184 8.03142631 9.16050184 8.03142631 12.8125 8.6875 C14.03582031 8.93886719 15.25914062 9.19023437 16.51953125 9.44921875 C19.43704007 9.91091206 22.0590596 10.11763762 25 10 C25.33 9.01 25.66 8.02 26 7 C26 7.99 26 8.98 26 10 C28.3431213 9.74438677 30.67843403 9.40729228 33 9 C33.33 8.34 33.66 7.68 34 7 C36.76276177 7.52268466 39.3260876 8.10869587 42 9 C31.4409293 14.78234824 19.07762703 13.53174185 7.87109375 10.40625 C4.38072102 9.18206917 3.05453668 8.08620314 1.0625 4.9375 C0 2 0 2 0 0 Z " fill="#5FAC81" transform="translate(152,283)"/>
<path d="M0 0 C0.33 0 0.66 0 1 0 C1 11.22 1 22.44 1 34 C9.58 34 18.16 34 27 34 C27 34.66 27 35.32 27 36 C22.52084672 36.02886338 18.04171709 36.04675187 13.5625 36.0625 C12.28310547 36.07087891 11.00371094 36.07925781 9.68554688 36.08789062 C8.47060547 36.09111328 7.25566406 36.09433594 6.00390625 36.09765625 C4.87799072 36.10289307 3.7520752 36.10812988 2.59204102 36.11352539 C0 36 0 36 -1 35 C-1.01695563 32.40426476 -0.9710781 29.83863082 -0.87890625 27.24609375 C-0.85529526 26.47064713 -0.83168427 25.6952005 -0.80735779 24.89625549 C-0.7305411 22.40982565 -0.646595 19.92369331 -0.5625 17.4375 C-0.5092973 15.75587413 -0.4565568 14.07423356 -0.40429688 12.39257812 C-0.27490179 8.26152894 -0.1391106 4.13073298 0 0 Z " fill="#6AB28A" transform="translate(237,259)"/>
<path d="M0 0 C0.99 0.33 1.98 0.66 3 1 C4.99961564 1.03920815 7.00049364 1.04443347 9 1 C8.38125 1.2475 7.7625 1.495 7.125 1.75 C4.53448554 3.27383203 4.04055 4.20593055 3 7 C2.97333212 9.69441721 2.97333212 9.69441721 3.375 12.5 C3.7573497 15.73663468 4 18.72683544 4 22 C3.67 22.33 3.34 22.66 3 23 C2.92728259 25.35313555 2.91629132 27.70833668 2.9375 30.0625 C2.94652344 31.35285156 2.95554687 32.64320313 2.96484375 33.97265625 C2.97644531 34.97167969 2.98804688 35.97070312 3 37 C2.01 36.34 1.02 35.68 0 35 C-0.26686213 32.30459685 -0.34818073 29.84152536 -0.29296875 27.1484375 C-0.28872391 26.37440582 -0.28447906 25.60037415 -0.28010559 24.80288696 C-0.26328998 22.32657323 -0.22563395 19.85106842 -0.1875 17.375 C-0.17245682 15.69792841 -0.15876778 14.02084408 -0.14648438 12.34375 C-0.11337721 8.22885419 -0.06157637 4.11456431 0 0 Z " fill="#4EAC74" transform="translate(300,258)"/>
<path d="M0 0 C0.66 0.33 1.32 0.66 2 1 C1.505 1.928125 1.01 2.85625 0.5 3.8125 C-1.21289852 6.86527516 -1.21289852 6.86527516 -1 10 C-1.66 10 -2.32 10 -3 10 C-3 10.66 -3 11.32 -3 12 C-3.66 12 -4.32 12 -5 12 C-4.91621094 12.54785156 -4.83242187 13.09570312 -4.74609375 13.66015625 C-3.7314948 21.55861645 -4.31493645 29.09542055 -5 37 C-5.66 37 -6.32 37 -7 37 C-10.02681189 23.00099501 -7.16231495 12.0498066 0 0 Z " fill="#E1E6D9" transform="translate(138,225)"/>
<path d="M0 0 C0.66 0 1.32 0 2 0 C2.37562378 8.62543497 2.1435736 16.84999438 -1 25 C-1.96642467 26.03248407 -2.96317863 27.03823004 -4 28 C-4.33 28.99 -4.66 29.98 -5 31 C-9.88269795 36.54252199 -9.88269795 36.54252199 -14 37 C-13.34 35.68 -12.68 34.36 -12 33 C-11.34 33 -10.68 33 -10 33 C-9.67 32.01 -9.34 31.02 -9 30 C-8.34 30 -7.68 30 -7 30 C-6.5978125 28.9171875 -6.5978125 28.9171875 -6.1875 27.8125 C-5 25 -5 25 -3.4375 22.5 C-0.71588433 17.76675535 -0.74997424 12.54054233 -0.4375 7.1875 C-0.39431641 6.49462891 -0.35113281 5.80175781 -0.30664062 5.08789062 C-0.20138547 3.39211314 -0.10027137 1.69607948 0 0 Z " fill="#5BA77F" transform="translate(210,244)"/>
<path d="M0 0 C-2.41952583 4.20233434 -5.15555353 8.07927649 -8 12 C-8.66 11.67 -9.32 11.34 -10 11 C-9.34 10.01 -8.68 9.02 -8 8 C-8 6.68 -8 5.36 -8 4 C-9.44096586 4.42594588 -10.87768712 4.86626633 -12.3125 5.3125 C-13.51326172 5.67794922 -13.51326172 5.67794922 -14.73828125 6.05078125 C-17.12036367 7.05051532 -18.22172739 8.18131211 -20 10 C-22.6875 10.1875 -22.6875 10.1875 -25 10 C-17.85942458 3.57348212 -9.5576802 -0.18033359 0 0 Z " fill="#5EA681" transform="translate(191,214)"/>
<path d="M0 0 C9.57 0 19.14 0 29 0 C29 2.64 29 5.28 29 8 C27.02 8 25.04 8 23 8 C24.32 7.67 25.64 7.34 27 7 C27 5.35 27 3.7 27 2 C17.76 2.33 8.52 2.66 -1 3 C-0.67 2.01 -0.34 1.02 0 0 Z " fill="#5BA47E" transform="translate(267,257)"/>
<path d="M0 0 C1.27617187 0.02320313 2.55234375 0.04640625 3.8671875 0.0703125 C5.78917969 0.09738281 5.78917969 0.09738281 7.75 0.125 C9.23113281 0.15980469 9.23113281 0.15980469 10.7421875 0.1953125 C10.7421875 0.5253125 10.7421875 0.8553125 10.7421875 1.1953125 C6.7821875 1.1953125 2.8221875 1.1953125 -1.2578125 1.1953125 C-1.2578125 3.1753125 -1.2578125 5.1553125 -1.2578125 7.1953125 C4.0221875 7.1953125 9.3021875 7.1953125 14.7421875 7.1953125 C15.0721875 8.5153125 15.4021875 9.8353125 15.7421875 11.1953125 C15.0821875 11.8553125 14.4221875 12.5153125 13.7421875 13.1953125 C13.4121875 12.2053125 13.0821875 11.2153125 12.7421875 10.1953125 C11.68257813 10.14632813 10.62296875 10.09734375 9.53125 10.046875 C8.14320253 9.97184541 6.75518299 9.89629765 5.3671875 9.8203125 C4.66851562 9.789375 3.96984375 9.7584375 3.25 9.7265625 C-2.03125 9.421875 -2.03125 9.421875 -4.2578125 7.1953125 C-5.0078125 4.6953125 -5.0078125 4.6953125 -5.2578125 2.1953125 C-3.2578125 0.1953125 -3.2578125 0.1953125 0 0 Z " fill="#57A97E" transform="translate(278.2578125,263.8046875)"/>
<path d="M0 0 C2.25713762 3.58964468 2.18791304 6.44850447 2.046875 10.62890625 C2.00433594 11.91087891 1.96179688 13.19285156 1.91796875 14.51367188 C1.89009277 15.17810303 1.8622168 15.84253418 1.83349609 16.52709961 C1.75014959 18.5588535 1.68836278 20.59046901 1.62890625 22.62304688 C1.25679221 32.61481168 1.25679221 32.61481168 -1 36 C-1.02465098 31.03377651 -1.04283649 26.06758834 -1.05493164 21.10131836 C-1.0599719 19.41055684 -1.06680405 17.71979971 -1.07543945 16.02905273 C-1.08751857 13.60399293 -1.09323123 11.17899056 -1.09765625 8.75390625 C-1.10281754 7.99348526 -1.10797882 7.23306427 -1.11329651 6.44960022 C-1.11349238 4.6326743 -1.06197277 2.81586873 -1 1 C-0.67 0.67 -0.34 0.34 0 0 Z " fill="#E5EBDC" transform="translate(237,212)"/>
<path d="M0 0 C4.8333472 -0.08333357 9.23692563 0.04738513 14 1 C14 1.33 14 1.66 14 2 C10.37 2 6.74 2 3 2 C3 3.98 3 5.96 3 8 C8.94 8 14.88 8 21 8 C21 8.33 21 8.66 21 9 C14.07 9 7.14 9 0 9 C0 6.03 0 3.06 0 0 Z " fill="#55A278" transform="translate(274,278)"/>
<path d="M0 0 C9.9 0.33 19.8 0.66 30 1 C30 1.66 30 2.32 30 3 C26.04907941 3.07409401 22.09842706 3.12857406 18.14697266 3.16479492 C16.14080626 3.18732251 14.13483474 3.2254357 12.12890625 3.26367188 C10.87207031 3.27333984 9.61523438 3.28300781 8.3203125 3.29296875 C6.57645264 3.31653442 6.57645264 3.31653442 4.79736328 3.34057617 C3.8742334 3.22818604 2.95110352 3.1157959 2 3 C1.34 2.01 0.68 1.02 0 0 Z " fill="#71B48D" transform="translate(266,292)"/>
<path d="M0 0 C4.56037111 0.53651425 7.59163573 1.90148703 11 5 C12.49386878 9.41557899 12.54373682 12.84160417 10.5625 17.0625 C10.046875 17.701875 9.53125 18.34125 9 19 C8.01 18.67 7.02 18.34 6 18 C6.66 16.68 7.32 15.36 8 14 C8.66 14 9.32 14 10 14 C9.43260132 9.87026372 9.43260132 9.87026372 8 6 C6.11736119 5.09656316 6.11736119 5.09656316 3.9375 4.375 C3.20402344 4.11460937 2.47054688 3.85421875 1.71484375 3.5859375 C1.14894531 3.39257812 0.58304687 3.19921875 0 3 C0 2.01 0 1.02 0 0 Z " fill="#519E75" transform="translate(358,272)"/>
<path d="M0 0 C0.66 0.33 1.32 0.66 2 1 C2.02888514 4.14581423 2.04675923 7.29159469 2.0625 10.4375 C2.07087891 11.33533203 2.07925781 12.23316406 2.08789062 13.15820312 C2.09111328 14.01220703 2.09433594 14.86621094 2.09765625 15.74609375 C2.10289307 16.53685303 2.10812988 17.3276123 2.11352539 18.14233398 C2 20 2 20 1 21 C-0.66617115 21.04063832 -2.33388095 21.042721 -4 21 C-3.67 20.34 -3.34 19.68 -3 19 C-2.01 19 -1.02 19 0 19 C-0.08378906 17.79601562 -0.16757812 16.59203125 -0.25390625 15.3515625 C-0.3570641 13.77606084 -0.45991266 12.20053891 -0.5625 10.625 C-0.61857422 9.8309375 -0.67464844 9.036875 -0.73242188 8.21875 C-1.11328125 2.2265625 -1.11328125 2.2265625 0 0 Z " fill="#5FA380" transform="translate(309,274)"/>
<path d="M0 0 C0.33 0 0.66 0 1 0 C1.04254356 1.99954746 1.04080783 4.00041636 1 6 C0 7 0 7 -3.0625 7.0625 C-4.031875 7.041875 -5.00125 7.02125 -6 7 C-7 5 -8 3 -9 1 C-2.25 0.875 -2.25 0.875 0 2 C0 1.34 0 0.68 0 0 Z " fill="#43AF6C" transform="translate(366,258)"/>
<path d="M0 0 C2.97 0 5.94 0 9 0 C9 5.94 9 11.88 9 18 C7.06604999 14.13209997 6.76710647 12.8499541 6.875 8.75 C6.89304687 7.85796875 6.91109375 6.9659375 6.9296875 6.046875 C6.96449219 5.03367187 6.96449219 5.03367187 7 4 C4.69 3.67 2.38 3.34 0 3 C0 2.01 0 1.02 0 0 Z " fill="#5DA77E" transform="translate(326,257)"/>
<path d="M0 0 C0.66 0.33 1.32 0.66 2 1 C1.52046875 1.391875 1.0409375 1.78375 0.546875 2.1875 C-1.4259201 4.49905789 -1.51759909 5.99666519 -1.75 9 C-1.82734375 9.86625 -1.9046875 10.7325 -1.984375 11.625 C-2.12864353 14.15150627 -2.12864353 14.15150627 -1 17 C-2.32 16.34 -3.64 15.68 -5 15 C-5.76681614 7.33183857 -5.76681614 7.33183857 -3.88671875 4.06640625 C-2.5 2.4375 -2.5 2.4375 0 0 Z " fill="#509F73" transform="translate(345,258)"/>
<path d="M0 0 C0.66 0 1.32 0 2 0 C5 4.38461538 5 4.38461538 5 7 C7.97 7 10.94 7 14 7 C13.67 7.99 13.34 8.98 13 10 C10.3125 10.3125 10.3125 10.3125 7 10 C3.35415587 7.09989671 1.39448252 4.43698984 0 0 Z " fill="#5DA383" transform="translate(321,285)"/>
<path d="M0 0 C1.32 0.66 2.64 1.32 4 2 C3.25 6.75 3.25 6.75 1 9 C-0.32 9 -1.64 9 -3 9 C-3 8.34 -3 7.68 -3 7 C-2.34 7 -1.68 7 -1 7 C-0.67 4.69 -0.34 2.38 0 0 Z " fill="#E6E9DA" transform="translate(300,238)"/>
<path d="M0 0 C0.33 0 0.66 0 1 0 C1.02701408 2.10409639 1.04640223 4.20829178 1.0625 6.3125 C1.07410156 7.48425781 1.08570313 8.65601563 1.09765625 9.86328125 C1 13 1 13 0 16 C-0.66 15.67 -1.32 15.34 -2 15 C-1.85879286 13.06215735 -1.71187127 11.12473045 -1.5625 9.1875 C-1.48128906 8.10855469 -1.40007812 7.02960938 -1.31640625 5.91796875 C-1 3 -1 3 0 0 Z " fill="#5EA77E" transform="translate(220,245)"/>
<path d="M0 0 C1.98 0.99 1.98 0.99 4 2 C3.34 4.97 2.68 7.94 2 11 C1.34 11 0.68 11 0 11 C0 7.37 0 3.74 0 0 Z " fill="#58A474" transform="translate(266,261)"/>
<path d="M0 0 C1.91731918 0.11455681 3.8338675 0.24206258 5.75 0.375 C7.35101563 0.47941406 7.35101563 0.47941406 8.984375 0.5859375 C11.80206432 0.9728223 13.5830366 1.55686166 16 3 C13.70890403 3.08075665 11.41700733 3.13907731 9.125 3.1875 C7.21074219 3.23970703 7.21074219 3.23970703 5.2578125 3.29296875 C4.18273437 3.19628906 3.10765625 3.09960938 2 3 C1.34 2.01 0.68 1.02 0 0 Z " fill="#69A78B" transform="translate(266,292)"/>
<path d="M0 0 C0.99 0.33 1.98 0.66 3 1 C3 3.97 3 6.94 3 10 C2.34 10 1.68 10 1 10 C-0.60725635 6.78548731 -0.05748185 3.56387464 0 0 Z " fill="#5DA080" transform="translate(266,278)"/>
<path d="M0 0 C0.66 0.33 1.32 0.66 2 1 C1.45276317 4.37462715 0.9451 6.08235 -1 9 C-3.35171131 8.40138258 -5.6859378 7.73075648 -8 7 C-8.33 6.34 -8.66 5.68 -9 5 C-6.36 5 -3.72 5 -1 5 C-0.67 3.35 -0.34 1.7 0 0 Z " fill="#5EA37E" transform="translate(367,259)"/>
<path d="M0 0 C0.66 0.33 1.32 0.66 2 1 C1.49890042 5.38462134 0.01704885 7.8000997 -3 11 C-3.66 11 -4.32 11 -5 11 C-4.09456151 8.28368454 -3.07525194 5.65228812 -2 3 C-1.34 3 -0.68 3 0 3 C0 2.01 0 1.02 0 0 Z " fill="#4FA874" transform="translate(215,267)"/>
<path d="M0 0 C0.33 1.98 0.66 3.96 1 6 C0.34 5.67 -0.32 5.34 -1 5 C-1 4.34 -1 3.68 -1 3 C-3.31 3 -5.62 3 -8 3 C-7.67 2.01 -7.34 1.02 -7 0 C-4.3333581 -1.33332095 -2.83319697 -0.67102033 0 0 Z " fill="#E5EADC" transform="translate(266,241)"/>
<path d="M0 0 C0.99 0.495 0.99 0.495 2 1 C4.38056989 8.64288227 4.38056989 8.64288227 3 13 C3 12.34 3 11.68 3 11 C2.34 11 1.68 11 1 11 C0.67 7.37 0.34 3.74 0 0 Z " fill="#6DB590" transform="translate(148,270)"/>
<path d="M0 0 C0.99 0.33 1.98 0.66 3 1 C4.99961564 1.03920815 7.00049364 1.04443347 9 1 C8.4225 1.2475 7.845 1.495 7.25 1.75 C4.6997003 3.16683317 2.98214299 4.87627537 1 7 C0 6 0 6 -0.0625 2.9375 C-0.041875 1.968125 -0.02125 0.99875 0 0 Z " fill="#36C28E" transform="translate(300,258)"/>
<path d="M0 0 C0.99 0 1.98 0 3 0 C3.33 0.66 3.66 1.32 4 2 C5.97888961 2.72693904 7.97954558 3.39816251 10 4 C10 4.66 10 5.32 10 6 C6.7 5.34 3.4 4.68 0 4 C0 2.68 0 1.36 0 0 Z " fill="#50A172" transform="translate(347,267)"/>
<path d="M0 0 C0.33 0 0.66 0 1 0 C0.88648483 1.81325551 0.75887039 3.62563357 0.625 5.4375 C0.55539063 6.44683594 0.48578125 7.45617187 0.4140625 8.49609375 C0.27742187 9.32238281 0.14078125 10.14867187 0 11 C-0.99 11.495 -0.99 11.495 -2 12 C-2.05422947 10.5629191 -2.09289723 9.12524538 -2.125 7.6875 C-2.14820313 6.88699219 -2.17140625 6.08648437 -2.1953125 5.26171875 C-2 3 -2 3 0 0 Z " fill="#51AB76" transform="translate(158,248)"/>
<path d="M0 0 C0.33 0 0.66 0 1 0 C1 3.63 1 7.26 1 11 C0.01 10.67 -0.98 10.34 -2 10 C-2 8.02 -2 6.04 -2 4 C-1.34 4 -0.68 4 0 4 C0 2.68 0 1.36 0 0 Z " fill="#38C25B" transform="translate(268,268)"/>
<path d="M0 0 C0.33 0.66 0.66 1.32 1 2 C2.32 2 3.64 2 5 2 C4.34 3.32 3.68 4.64 3 6 C2.34 6 1.68 6 1 6 C0.34 6.66 -0.32 7.32 -1 8 C-1 4.88742431 -0.82638376 2.89234315 0 0 Z " fill="#C3E3C6" transform="translate(212,232)"/>
<path d="M0 0 C0.66 0.33 1.32 0.66 2 1 C-1.96 4.465 -1.96 4.465 -6 8 C-6.66 7.01 -7.32 6.02 -8 5 C-6.71475739 4.13619741 -5.42157581 3.28419631 -4.125 2.4375 C-3.04605469 1.72400391 -3.04605469 1.72400391 -1.9453125 0.99609375 C-1.30335938 0.66738281 -0.66140625 0.33867187 0 0 Z " fill="#5DA479" transform="translate(208,280)"/>
<path d="M0 0 C2 1.375 2 1.375 4 3 C4 3.66 4 4.32 4 5 C4.66 5 5.32 5 6 5 C6 5.99 6 6.98 6 8 C4.125 7.375 4.125 7.375 2 6 C0.75 2.875 0.75 2.875 0 0 Z " fill="#52A977" transform="translate(311,272)"/>
<path d="M0 0 C2.93200474 2.85276137 5.64315404 5.65079784 8 9 C7.01 9 6.02 9 5 9 C0 3.76744186 0 3.76744186 0 0 Z " fill="#54A379" transform="translate(314,264)"/>
<path d="M0 0 C0.99 0.33 1.98 0.66 3 1 C2.01 3.31 1.02 5.62 0 8 C-0.99 7.67 -1.98 7.34 -3 7 C-2.01 4.69 -1.02 2.38 0 0 Z " fill="#DEE7D7" transform="translate(142,233)"/>
<path d="M0 0 C0.99 0.33 1.98 0.66 3 1 C2.3125 3.4375 2.3125 3.4375 1 6 C-1.625 6.8125 -1.625 6.8125 -4 7 C-3.39816251 4.97954558 -2.72693904 2.97888961 -2 1 C-1.34 0.67 -0.68 0.34 0 0 Z " fill="#4CA373" transform="translate(181,221)"/>
<path d="M0 0 C0.33 0 0.66 0 1 0 C1.33 3.63 1.66 7.26 2 11 C1.01 10.34 0.02 9.68 -1 9 C-0.67 6.03 -0.34 3.06 0 0 Z " fill="#52B69C" transform="translate(301,284)"/>
<path d="M0 0 C2.97 0 5.94 0 9 0 C9 0.66 9 1.32 9 2 C6.36 2.33 3.72 2.66 1 3 C0.67 2.01 0.34 1.02 0 0 Z " fill="#5EA37D" transform="translate(301,257)"/>
<path d="M0 0 C0.66 0.66 1.32 1.32 2 2 C1.34 4.31 0.68 6.62 0 9 C-0.66 8.67 -1.32 8.34 -2 8 C-2.125 5.125 -2.125 5.125 -2 2 C-1.34 1.34 -0.68 0.68 0 0 Z " fill="#E2EADA" transform="translate(246,218)"/>
<path d="M0 0 C1.125 3.75 1.125 3.75 0 6 C1.32 6.33 2.64 6.66 4 7 C2.125 7.625 2.125 7.625 0 8 C-0.66 7.34 -1.32 6.68 -2 6 C-1.64644564 3.73725212 -1.02455574 2.04911148 0 0 Z " fill="#F3F3E8" transform="translate(189,249)"/>
<path d="M0 0 C0.33 1.32 0.66 2.64 1 4 C-3.75 6.875 -3.75 6.875 -6 8 C-4.55746343 4.63408134 -2.66735273 2.48952921 0 0 Z " fill="#54A071" transform="translate(163,226)"/>
<path d="M0 0 C2 2 2 2 2.125 4.625 C2.08375 5.40875 2.0425 6.1925 2 7 C1.01 6.67 0.02 6.34 -1 6 C-1.33 4.35 -1.66 2.7 -2 1 C-1.34 0.67 -0.68 0.34 0 0 Z " fill="#3FBF8B" transform="translate(295,286)"/>
<path d="M0 0 C0.33 0 0.66 0 1 0 C1.125 2.375 1.125 2.375 1 5 C0.34 5.66 -0.32 6.32 -1 7 C-1.99 6.67 -2.98 6.34 -4 6 C-3.34 4.68 -2.68 3.36 -2 2 C-1.34 2 -0.68 2 0 2 C0 1.34 0 0.68 0 0 Z " fill="#54A77A" transform="translate(368,284)"/>
<path d="M0 0 C1.74627478 2.61941217 2.38722388 4.03824877 3 7 C0 6 0 6 -2 3 C-1.34 2.01 -0.68 1.02 0 0 Z " fill="#C5DDCB" transform="translate(147,279)"/>
<path d="M0 0 C0.33 0 0.66 0 1 0 C1.48828125 1.98567708 1.9765625 3.97135417 2.46484375 5.95703125 C2.91010705 7.65683202 3.44433985 9.33301954 4 11 C2.68 10.34 1.36 9.68 0 9 C0 6.03 0 3.06 0 0 Z " fill="#60A87F" transform="translate(340,264)"/>
<path d="M0 0 C0.99 0 1.98 0 3 0 C1.63016497 3.16115776 1.0109362 3.9927092 -2 6 C-1.125 1.125 -1.125 1.125 0 0 Z " fill="#E6EEE0" transform="translate(206,242)"/>
</svg>
